<svg width="18" height="36" viewBox="0 0 18 36" xmlns="http://www.w3.org/2000/svg"><path fill="context-fill" d="M 3.4620099e-4,0 A -9,9 0 0 1 1.2815962,0.09179687 -9,9 0 0 1 2.5355022,0.36523438 -9,9 0 0 1 3.7386272,0.8125 a -9,9 0 0 1 1.126953,0.6171875 -9,9 0 0 1 1.029297,0.7695313 -9,9 0 0 1 0.90625,0.90625 -9,9 0 0 1 0.769531,1.0292968 -9,9 0 0 1 0.617188,1.1269532 -9,9 0 0 1 0.4472656,1.203125 A -9,9 0 0 1 8.9085493,7.71875 -9,9 0 0 1 9.0003462,9 v 18 a -9,9 0 0 0 0.091797,1.28125 -9,9 0 0 0 0.2734375,1.253906 -9,9 0 0 0 0.4472656,1.203125 -9,9 0 0 0 0.6171878,1.126953 -9,9 0 0 0 0.769531,1.029297 -9,9 0 0 0 0.90625,0.90625 -9,9 0 0 0 1.029297,0.769531 -9,9 0 0 0 1.126953,0.617188 -9,9 0 0 0 1.203125,0.447266 -9,9 0 0 0 1.253906,0.273437 A -9,9 0 0 0 18.000346,36 H 9.0003462 3.4620099e-4 V 9 Z"/><path fill="none" stroke="context-stroke" stroke-width="4" d="M 1.7820099e-4,1.99998 C 0.4289042,2.0000182 0.8570772,2.027287 1.2814312,2.081577 c 0.423943,0.054392 0.842978,0.1356173 1.253907,0.2430559 0.411177,0.1069014 0.81324,0.2397625 1.203126,0.3975699 0.389877,0.1587711 0.766487,0.3421089 1.126955,0.5486119 0.360998,0.2059159 0.704975,0.4345082 1.029298,0.6840289 0.323236,0.2490343 0.626088,0.5182355 0.906251,0.8055567 0.28071,0.2882875 0.537877,0.5940439 0.769532,0.9149315 0.232316,0.3204155 0.4385711,0.655181 0.6171891,1.0017375 0.177533,0.3465655 0.327001,0.7039561 0.447265,1.0694459 0.120868,0.365271 0.212247,0.7377459 0.273439,1.1145849 0.06108,0.377202 0.09176,0.7578014 0.0918,1.1388903 V 26.000013 c 4.4e-5,0.381088 0.03072,0.761687 0.0918,1.138889 0.06119,0.376839 0.152569,0.749314 0.273437,1.114586 0.120264,0.36549 0.269733,0.722879 0.447267,1.069445 0.178617,0.346557 0.3848707,0.681321 0.6171867,1.001738 0.231656,0.320887 0.488822,0.626643 0.769533,0.914932 0.280163,0.287321 0.583015,0.556523 0.906251,0.805556 0.324324,0.249521 0.668299,0.478113 1.029297,0.684029 0.360468,0.206503 0.737079,0.389842 1.126956,0.548611 0.389886,0.157808 0.79195,0.29067 1.203126,0.397571 0.41093,0.107438 0.829964,0.188663 1.253908,0.243055 0.424352,0.0543 0.852526,0.08157 1.281251,0.0816"/></svg>
