<svg width="16" height="32" viewBox="0 0 16 32" xmlns="http://www.w3.org/2000/svg"><path fill="context-fill" d="m 4,0 a 4,4 0 0 1 0.568359,0.04101562 4,4 0 0 1 0.558594,0.12109376 4,4 0 0 1 0.535156,0.19921874 4,4 0 0 1 0.5,0.2734375 4,4 0 0 1 0.457032,0.34179688 4,4 0 0 1 0.404297,0.4042969 4,4 0 0 1 0.341796,0.4570312 4,4 0 0 1 0.273438,0.5 A 4,4 0 0 1 7.837891,2.8730469 4,4 0 0 1 7.958984,3.4316406 4,4 0 0 1 8,4 v 24 a 4,4 0 0 0 0.04102,0.568359 4,4 0 0 0 0.121093,0.558594 4,4 0 0 0 0.199219,0.535156 4,4 0 0 0 0.273438,0.5 4,4 0 0 0 0.341797,0.457032 4,4 0 0 0 0.404296,0.404297 4,4 0 0 0 0.457032,0.341796 4,4 0 0 0 0.5,0.273438 4,4 0 0 0 0.535156,0.199219 4,4 0 0 0 0.558594,0.121093 A 4,4 0 0 0 12,32 H 8 4 0 V 0 Z"/><path fill="none" stroke="context-stroke" stroke-width="4" d="m 0,2 h 3.999555 c 0.190164,1.248e-4 0.380076,0.012114 0.568291,0.035891 0.188824,0.023621 0.375476,0.059027 0.558528,0.1059572 0.182881,0.046877 0.361701,0.1051298 0.535092,0.1743167 0.172935,0.069252 0.340004,0.1492052 0.49994,0.2392582 0.160267,0.090042 0.312982,0.1899878 0.456976,0.2990729 0.14422,0.1093306 0.279314,0.2275528 0.404248,0.3537602 0.124656,0.1260103 0.238865,0.2596512 0.341758,0.3999034 0.102905,0.1399592 0.194272,0.2861641 0.273405,0.4375007 0.07906,0.1517354 0.145629,0.3082216 0.199194,0.4682629 0.05362,0.1601881 0.09409,0.3235285 0.121079,0.48877 0.02717,0.1647082 0.04087,0.3309013 0.04102,0.4973157 V 26.500047 c 1.41e-4,0.166412 0.01385,0.332606 0.041,0.497312 0.02699,0.165243 0.06745,0.328585 0.12109,0.488773 0.05356,0.160039 0.120144,0.316527 0.199208,0.468261 0.07913,0.151336 0.1705,0.297541 0.273404,0.437503 0.102894,0.14025 0.217103,0.273892 0.341757,0.3999 0.124933,0.12621 0.26003,0.244434 0.40425,0.353762 0.143993,0.109086 0.296707,0.209031 0.456976,0.299073 0.159935,0.09009 0.327004,0.170009 0.49994,0.239262 0.173391,0.06925 0.35221,0.127438 0.535093,0.174317 0.18305,0.04686 0.369702,0.08227 0.558527,0.105954 0.188214,0.02377 0.378126,0.03577 0.568292,0.03591"/></svg>
