<svg width="16" height="32" viewBox="0 0 16 32" xmlns="http://www.w3.org/2000/svg"><path fill="context-fill" d="M 12 0 A 4 4 0 0 0 11.431641 0.041015625 A 4 4 0 0 0 10.873047 0.16210938 A 4 4 0 0 0 10.337891 0.36132812 A 4 4 0 0 0 9.8378906 0.63476562 A 4 4 0 0 0 9.3808594 0.9765625 A 4 4 0 0 0 8.9765625 1.3808594 A 4 4 0 0 0 8.6347656 1.8378906 A 4 4 0 0 0 8.3613281 2.3378906 A 4 4 0 0 0 8.1621094 2.8730469 A 4 4 0 0 0 8.0410156 3.4316406 A 4 4 0 0 0 8 4 L 8 28 A 4 4 0 0 1 7.9589844 28.568359 A 4 4 0 0 1 7.8378906 29.126953 A 4 4 0 0 1 7.6386719 29.662109 A 4 4 0 0 1 7.3652344 30.162109 A 4 4 0 0 1 7.0234375 30.619141 A 4 4 0 0 1 6.6191406 31.023438 A 4 4 0 0 1 6.1621094 31.365234 A 4 4 0 0 1 5.6621094 31.638672 A 4 4 0 0 1 5.1269531 31.837891 A 4 4 0 0 1 4.5683594 31.958984 A 4 4 0 0 1 4 32 L 8 32 L 12 32 L 16 32 L 16 0 L 12 0 z"/><path fill="none" stroke="context-stroke" stroke-width="4" d="M 16.000095,2 H 12.00054 C 11.810376,2.0001248 11.620464,2.012114 11.432249,2.035891 11.243425,2.059512 11.056773,2.094918 10.873721,2.1418482 10.69084,2.1887252 10.51202,2.246978 10.338629,2.3161649 10.165694,2.3854169 9.998625,2.4653701 9.838689,2.5554231 9.678422,2.6454651 9.525707,2.7454109 9.381713,2.854496 9.237493,2.9638266 9.102399,3.0820488 8.977465,3.2082562 8.852809,3.3342665 8.7386004,3.4679074 8.6357074,3.6081596 c -0.102905,0.1399592 -0.194272,0.2861641 -0.273405,0.4375007 -0.07906,0.1517354 -0.145629,0.3082216 -0.199194,0.4682629 -0.05362,0.1601881 -0.09409,0.3235285 -0.121079,0.48877 -0.02717,0.1647082 -0.04087,0.3309013 -0.04102,0.4973157 V 26.500047 c -1.41e-4,0.166412 -0.01385,0.332606 -0.041,0.497312 -0.02699,0.165243 -0.06745,0.328585 -0.12109,0.488773 -0.05356,0.160039 -0.120144,0.316527 -0.199208,0.468261 -0.07913,0.151336 -0.1705,0.297541 -0.273404,0.437503 -0.102894,0.14025 -0.217103,0.273892 -0.341757,0.3999 -0.124933,0.12621 -0.26003,0.244434 -0.40425,0.353762 -0.143993,0.109086 -0.296707,0.209031 -0.456976,0.299073 -0.159935,0.09009 -0.327004,0.170009 -0.49994,0.239262 -0.173391,0.06925 -0.35221,0.127438 -0.535093,0.174317 -0.18305,0.04686 -0.369702,0.08227 -0.558527,0.105954 -0.188214,0.02377 -0.378126,0.03577 -0.568292,0.03591"/></svg>
