<?xml version="1.0" encoding="UTF-8" standalone="no"?>
<!-- Created with Inkscape (http://www.inkscape.org/) -->

<svg
   width="20"
   height="20"
   viewBox="0 0 20 20"
   version="1.1"
   id="svg5"
   inkscape:version="1.1 (c68e22c387, 2021-05-23)"
   sodipodi:docname="MediaMask.svg"
   xmlns:inkscape="http://www.inkscape.org/namespaces/inkscape"
   xmlns:sodipodi="http://sodipodi.sourceforge.net/DTD/sodipodi-0.dtd"
   xmlns="http://www.w3.org/2000/svg"
   xmlns:svg="http://www.w3.org/2000/svg">
  <sodipodi:namedview
     id="namedview7"
     pagecolor="#ffffff"
     bordercolor="#999999"
     borderopacity="1"
     inkscape:pageshadow="0"
     inkscape:pageopacity="0"
     inkscape:pagecheckerboard="0"
     inkscape:document-units="px"
     showgrid="false"
     units="px"
     inkscape:snap-page="true"
     inkscape:zoom="23.71807"
     inkscape:cx="10.118867"
     inkscape:cy="9.6972479"
     inkscape:window-width="1920"
     inkscape:window-height="1018"
     inkscape:window-x="-8"
     inkscape:window-y="-8"
     inkscape:window-maximized="1"
     inkscape:current-layer="layer1" />
  <defs
     id="defs2" />
  <g
     inkscape:label="Слой 1"
     inkscape:groupmode="layer"
     id="layer1">
    <path
       id="path1115"
       style="fill:#000000;fill-rule:evenodd;stroke-width:0;stroke-dashoffset:10"
       d="M 0 0 L 0 20 L 20 20 L 20 10 C 20 10 19.959961 10.000488 19.886719 9.9980469 C 19.813477 9.9956055 19.707031 9.9902344 19.570312 9.9804688 C 19.433594 9.9707031 19.268555 9.9555664 19.078125 9.9335938 C 18.98291 9.9226074 18.880249 9.9094849 18.773438 9.8945312 C 18.666626 9.8795776 18.554688 9.8632812 18.4375 9.84375 C 18.320312 9.8242188 18.198608 9.802063 18.072266 9.7773438 C 17.945923 9.7526245 17.813965 9.7258301 17.679688 9.6953125 C 17.54541 9.6647949 17.408569 9.6306763 17.267578 9.59375 C 17.126587 9.5568237 16.982422 9.5166016 16.835938 9.4726562 C 16.689453 9.4287109 16.541382 9.3816528 16.390625 9.3300781 C 16.239868 9.2785034 16.087402 9.2219238 15.933594 9.1621094 C 15.779785 9.1022949 15.62439 9.0393677 15.46875 8.9707031 C 15.31311 8.9020386 15.15625 8.828125 15 8.75 C 14.84375 8.671875 14.68689 8.5881958 14.53125 8.5 C 14.45343 8.4559021 14.376266 8.4119644 14.298828 8.3652344 C 14.22139 8.3185043 14.143311 8.2701416 14.066406 8.2207031 C 13.989502 8.1712646 13.914108 8.1205826 13.837891 8.0683594 C 13.761673 8.0161362 13.684753 7.9613342 13.609375 7.90625 C 13.533997 7.8511658 13.459152 7.7943497 13.384766 7.7363281 C 13.310379 7.6783066 13.237305 7.6196289 13.164062 7.5585938 C 13.09082 7.4975586 13.017258 7.4352188 12.945312 7.3710938 C 12.873367 7.3069687 12.802917 7.2411194 12.732422 7.1738281 C 12.661926 7.1065369 12.592331 7.0373306 12.523438 6.9667969 C 12.454544 6.8962631 12.387451 6.8238525 12.320312 6.75 C 12.253174 6.6761475 12.186325 6.6006851 12.121094 6.5234375 C 12.055862 6.4461899 11.990906 6.3678284 11.927734 6.2871094 C 11.864563 6.2063904 11.803146 6.1233292 11.742188 6.0390625 C 11.681229 5.9547958 11.621094 5.8691406 11.5625 5.78125 C 11.503906 5.6933594 11.446701 5.6033096 11.390625 5.5117188 C 11.334549 5.4201279 11.279968 5.3277893 11.226562 5.2324219 C 11.173157 5.1370544 11.120895 5.0386734 11.070312 4.9394531 C 11.01973 4.8402328 10.969482 4.7398682 10.921875 4.6367188 C 10.874268 4.5335693 10.829636 4.4274673 10.785156 4.3203125 C 10.740677 4.2131577 10.697449 4.1053772 10.65625 3.9941406 C 10.615051 3.8829041 10.574875 3.7677383 10.537109 3.6523438 C 10.499344 3.5369492 10.463867 3.4204102 10.429688 3.3007812 C 10.395508 3.1811523 10.362473 3.0594864 10.332031 2.9355469 C 10.30159 2.8116074 10.274597 2.684967 10.248047 2.5566406 C 10.221497 2.4283142 10.196335 2.2988052 10.173828 2.1660156 C 10.151321 2.033226 10.131592 1.8970947 10.113281 1.7597656 C 10.094971 1.6224365 10.078415 1.4837418 10.064453 1.3417969 C 10.050491 1.199852 10.038757 1.0548401 10.029297 0.90820312 C 10.019836 0.76156616 10.012619 0.61234283 10.007812 0.4609375 C 10.003006 0.30953217 10 0.15625 10 0 L 0 0 z " />
  </g>
</svg>
