<svg xmlns="http://www.w3.org/2000/svg">

<!-- WaveFox -->

    <clipPath id="WaveFoxLeftSide" clipPathUnits="objectBoundingBox">
        <path d="M 0,1 C 0.16666667,1 0.33336111,1 0.41668056,0.83334722 0.5,0.66669444 0.5,0.33336111 0.58334722,0.16668056 0.66669444,0 0.83333333,0 1,0 1,0 1,1 1,1 1,1 0,1 0,1 Z"/> 
    </clipPath>

    <clipPath id="WaveFoxRightSide" clipPathUnits="objectBoundingBox">
        <path d="M 1,1 C 0.83333333,1 0.66663889,1 0.58331944,0.83334722 0.5,0.66669444 0.5,0.33336111 0.41665278,0.16668056 0.33330556,0 0.16666667,0 0,0 0,0 0,1 0,1 0,1 1,1 1,1 Z"/> 
    </clipPath>

    <clipPath id="WaveFoxLeftSideClipped" clipPathUnits="objectBoundingBox">
        <path d="m 0.50000867,0.49999547 c 0.00521,0.03125 0.0104167,0.0625 0.0159505,0.0930981 0.002767,0.0152995 0.005599,0.0304631 0.008571,0.0453559 0.002974,0.0148919 0.00608,0.0295139 0.009331,0.0438368 0.003255,0.0143221 0.006684,0.0283476 0.0103081,0.0419375 0.00362,0.0135899 0.00743,0.0267474 0.0115017,0.0394418 0.004067,0.0126945 0.008369,0.0249301 0.012967,0.0365668 0.002294,0.005815 0.004663,0.0114578 0.007107,0.0169809 0.002443,0.005525 0.004995,0.0109054 0.007595,0.0161129 0.002601,0.00521 0.005268,0.0102493 0.008026,0.0151363 0.002767,0.004887 0.005599,0.009637 0.008517,0.0142144 0.002916,0.00458 0.005939,0.009015 0.009005,0.0132917 0.003073,0.004274 0.006229,0.008382 0.009439,0.0123698 0.003214,0.003984 0.006469,0.007852 0.009819,0.0115556 0.003355,0.003711 0.006817,0.007248 0.0103082,0.0106875 0.003487,0.003437 0.007016,0.006751 0.0106337,0.009928 0.00362,0.003181 0.007322,0.006237 0.0110677,0.009168 0.003744,0.002932 0.007529,0.005715 0.0113932,0.00841 0.00386,0.002692 0.007794,0.005293 0.0117734,0.007761 0.003976,0.00246 0.00801,0.004812 0.0120989,0.007057 0.004084,0.002245 0.008233,0.004365 0.0124245,0.006403 0.008382,0.004067 0.0169478,0.00772 0.0257161,0.011013 0.008769,0.003296 0.0177388,0.00624 0.0268559,0.008843 0.009115,0.002604 0.0183567,0.004897 0.0277777,0.006891 0.009421,0.001994 0.0190152,0.003689 0.0286996,0.005154 0.009684,0.001465 0.0194965,0.002672 0.0294054,0.003689 0.009909,0.001018 0.0199106,0.001845 0.0300017,0.002496 0.0100903,6.5126e-4 0.020256,0.001153 0.0304904,0.00152 0.0102344,3.6679e-4 0.0205343,5.9698e-4 0.0308698,7.5979e-4 C 0.95833419,1 0.97916668,1 1,1 V 0 C 0.83333462,0 0.66668324,-1.3915383e-5 0.58333655,0.16666538 0.54166495,0.25000428 0.52083909,0.3749964 0.5000056,0.49999547 Z"/> 
    </clipPath>

    <clipPath id="WaveFoxRightSideClipped" clipPathUnits="objectBoundingBox">
        <path d="m 0.49999133,0.49999547 c -0.00521,0.03125 -0.0104167,0.0625 -0.0159505,0.0930981 -0.002767,0.0152995 -0.005599,0.0304631 -0.008571,0.0453559 -0.002974,0.0148919 -0.00608,0.0295139 -0.009331,0.0438368 -0.003255,0.0143221 -0.006684,0.0283476 -0.0103081,0.0419375 -0.00362,0.0135899 -0.00743,0.0267474 -0.0115017,0.0394418 -0.004067,0.0126945 -0.008369,0.0249301 -0.012967,0.0365668 -0.002294,0.005815 -0.004663,0.0114578 -0.007107,0.0169809 -0.002443,0.005525 -0.004995,0.0109054 -0.007595,0.0161129 -0.002601,0.00521 -0.005268,0.0102493 -0.008026,0.0151363 -0.002767,0.004887 -0.005599,0.009637 -0.008517,0.0142144 -0.002916,0.00458 -0.005939,0.009015 -0.009005,0.0132917 -0.003073,0.004274 -0.006229,0.008382 -0.009439,0.0123698 -0.003214,0.003984 -0.006469,0.007852 -0.009819,0.0115556 -0.003355,0.003711 -0.006817,0.007248 -0.0103082,0.0106875 -0.003487,0.003437 -0.007016,0.006751 -0.0106337,0.009928 -0.00362,0.003181 -0.007322,0.006237 -0.0110677,0.009168 -0.003744,0.002932 -0.007529,0.005715 -0.0113932,0.00841 -0.00386,0.002692 -0.007794,0.005293 -0.0117734,0.007761 -0.003976,0.00246 -0.00801,0.004812 -0.0120989,0.007057 -0.004084,0.002245 -0.008233,0.004365 -0.0124245,0.006403 -0.008382,0.004067 -0.0169478,0.00772 -0.0257161,0.011013 -0.008769,0.003296 -0.0177388,0.00624 -0.0268559,0.008843 -0.009115,0.002604 -0.0183567,0.004897 -0.0277777,0.006891 -0.009421,0.001994 -0.0190152,0.003689 -0.0286996,0.005154 -0.009684,0.001465 -0.0194965,0.002672 -0.0294054,0.003689 -0.009909,0.001018 -0.0199106,0.001845 -0.0300017,0.002496 -0.0100903,6.5126e-4 -0.020256,0.001153 -0.0304904,0.00152 -0.0102344,3.6679e-4 -0.0205343,5.9698e-4 -0.0308698,7.5979e-4 C 0.04166581,1 0.02083332,1 0,1 V 0 c 0.16666538,0 0.33331676,-1.3915383e-5 0.41666345,0.16666538 0.0416716,0.0833389 0.0624975,0.20833102 0.083331,0.33333009 z"/> 
    </clipPath>

<!-- Australis -->

    <clipPath id="AustralisLeftSide" clipPathUnits="objectBoundingBox">
        <path d="M 0.95,0 H 1 V 1 H 0 C 0.27082458,0.98171903 0.3853096,0.83141427 0.43499997,0.54806327 0.46819997,0.3585821 0.485,9.9147133e-4 0.95,0 Z"/> 
    </clipPath>

    <clipPath id="AustralisRightSide" clipPathUnits="objectBoundingBox">
        <path d="M 0.05,0 H 0 V 1 H 1 C 0.72917542,0.98171903 0.6146904,0.83141427 0.56500003,0.54806327 0.53180003,0.3585821 0.515,9.9147133e-4 0.05,0 Z"/> 
    </clipPath>

    <clipPath id="AustralisLeftSideClipped" clipPathUnits="objectBoundingBox">
        <path d="m 0.5,0.26555475 c 4.83e-4,0.001175 0.001,0.002339 0.0015,0.003516 0.003,0.007484 0.0059,0.0150356 0.0086,0.0225912 0.0027,0.007555 0.0052,0.0151259 0.0076,0.0227213 0.0024,0.007595 0.0046,0.0151831 0.0068,0.0227865 0.0043,0.0152068 0.0081,0.0303964 0.01146,0.0454427 0.0034,0.0150463 0.0063,0.0299666 0.0091,0.0445963 0.0027,0.0146297 0.0051,0.0290119 0.0074,0.0429688 0.0045,0.0279137 0.0084,0.0541794 0.01256,0.0778646 0.0031,0.0177094 0.0065,0.0348922 0.01016,0.0515625 0.0036,0.0166703 0.0075,0.032871 0.01172,0.0485026 0.0042,0.0156316 0.0087,0.0307191 0.01354,0.0453125 0.0024,0.007297 0.0049,0.0144471 0.0075,0.0214844 0.0026,0.007037 0.0052,0.0139903 0.0079,0.0207682 0.0027,0.006778 0.0056,0.0134033 0.0085,0.0199219 0.0029,0.006519 0.0059,0.0128813 0.009,0.0191406 0.0031,0.006259 0.0063,0.0124244 0.0096,0.0184245 0.0033,0.006 0.0067,0.0118372 0.01016,0.0175781 0.0035,0.005741 0.0071,0.0113801 0.01074,0.016862 0.0037,0.005482 0.0074,0.0107928 0.01126,0.0160156 0.0039,0.005223 0.0079,0.0103356 0.01198,0.0152995 0.0041,0.004964 0.0082,0.009813 0.0125,0.0145182 0.0043,0.004705 0.0087,0.009291 0.01322,0.013737 0.0045,0.004446 0.0091,0.008768 0.01387,0.0129557 0.0047,0.004187 0.0096,0.008246 0.01458,0.0121745 0.005,0.003929 0.01003,0.007723 0.01523,0.0113932 0.0052,0.00367 0.01051,0.0072 0.01595,0.010612 0.0054,0.00341 0.01104,0.00668 0.01673,0.00983 0.0057,0.00315 0.01151,0.00622 0.01745,0.00911 0.0059,0.00289 0.01196,0.00563 0.01816,0.00827 0.0062,0.00264 0.01255,0.00511 0.01901,0.00749 0.0065,0.00238 0.01306,0.00465 0.01979,0.00677 0.0067,0.00212 0.01363,0.00413 0.02064,0.00599 0.007,0.00186 0.01413,0.0036 0.02142,0.00521 0.0073,0.0016 0.01469,0.00308 0.02227,0.00443 0.0076,0.00135 0.01531,0.00256 0.02318,0.00365 0.0079,0.00109 0.01586,0.00204 0.02402,0.00287 0.0081,8.275e-4 0.01644,0.00151 0.0249,0.00208 V -5.15e-6 H 0.95 C 0.676192,5.7866e-4 0.557857,0.12481312 0.5,0.26555475 Z"/> 
    </clipPath>

    <clipPath id="AustralisRightSideClipped" clipPathUnits="objectBoundingBox">
        <path d="m 0.5,0.26555475 c -4.83e-4,0.001175 -0.001,0.002339 -0.0015,0.003516 -0.003,0.007484 -0.0059,0.0150356 -0.0086,0.0225912 -0.0027,0.007555 -0.0052,0.0151259 -0.0076,0.0227213 -0.0024,0.007595 -0.0046,0.0151831 -0.0068,0.0227865 -0.0043,0.0152068 -0.0081,0.0303964 -0.01146,0.0454427 -0.0034,0.0150463 -0.0063,0.0299666 -0.0091,0.0445963 -0.0027,0.0146297 -0.0051,0.0290119 -0.0074,0.0429688 -0.0045,0.0279137 -0.0084,0.0541794 -0.01256,0.0778646 -0.0031,0.0177094 -0.0065,0.0348922 -0.01016,0.0515625 -0.0036,0.0166703 -0.0075,0.032871 -0.01172,0.0485026 -0.0042,0.0156316 -0.0087,0.0307191 -0.01354,0.0453125 -0.0024,0.007297 -0.0049,0.0144471 -0.0075,0.0214844 -0.0026,0.007037 -0.0052,0.0139903 -0.0079,0.0207682 -0.0027,0.006778 -0.0056,0.0134033 -0.0085,0.0199219 -0.0029,0.006519 -0.0059,0.0128813 -0.009,0.0191406 -0.0031,0.006259 -0.0063,0.0124244 -0.0096,0.0184245 -0.0033,0.006 -0.0067,0.0118372 -0.01016,0.0175781 -0.0035,0.005741 -0.0071,0.0113801 -0.01074,0.016862 -0.0037,0.005482 -0.0074,0.0107928 -0.01126,0.0160156 -0.0039,0.005223 -0.0079,0.0103356 -0.01198,0.0152995 -0.0041,0.004964 -0.0082,0.009813 -0.0125,0.0145182 -0.0043,0.004705 -0.0087,0.009291 -0.01322,0.013737 -0.0045,0.004446 -0.0091,0.008768 -0.01387,0.0129557 -0.0047,0.004187 -0.0096,0.008246 -0.01458,0.0121745 -0.005,0.003929 -0.01003,0.007723 -0.01523,0.0113932 -0.0052,0.00367 -0.01051,0.0072 -0.01595,0.010612 -0.0054,0.00341 -0.01104,0.00668 -0.01673,0.00983 -0.0057,0.00315 -0.01151,0.00622 -0.01745,0.00911 -0.0059,0.00289 -0.01196,0.00563 -0.01816,0.00827 -0.0062,0.00264 -0.01255,0.00511 -0.01901,0.00749 -0.0065,0.00238 -0.01306,0.00465 -0.01979,0.00677 -0.0067,0.00212 -0.01363,0.00413 -0.02064,0.00599 -0.007,0.00186 -0.01413,0.0036 -0.02142,0.00521 -0.0073,0.0016 -0.01469,0.00308 -0.02227,0.00443 -0.0076,0.00135 -0.01531,0.00256 -0.02318,0.00365 -0.0079,0.00109 -0.01586,0.00204 -0.02402,0.00287 -0.0081,8.275e-4 -0.01644,0.00151 -0.0249,0.00208 V -5.15e-6 h 0.05 c 0.273808,5.8381e-4 0.392143,0.12481827 0.45,0.2655599 z"/> 
    </clipPath>

<!-- Chrome (Material 1) -->

    <clipPath id="LegacyChromeLeftSide" clipPathUnits="objectBoundingBox">
        <path d="M 0,1 H 0.25 L 0.75,0 H 1 v 1 z"/> 
    </clipPath>

    <clipPath id="LegacyChromeRightSide" clipPathUnits="objectBoundingBox">
        <path d="M 1,1 H 0.75 L 0.25,0 H 0 v 1 z"/> 
    </clipPath>

    <clipPath id="LegacyChromeLeftSideClipped" clipPathUnits="objectBoundingBox">
        <path d="M 0.5,0.5 0.75,1 H 1 V 0 H 0.75 Z"/> 
    </clipPath>

    <clipPath id="LegacyChromeRightSideClipped" clipPathUnits="objectBoundingBox">
        <path d="M 0.5,0.5 0.25,1 H 0 V 0 h 0.25 z"/> 
    </clipPath>

<!-- Chrome (Material 2) -->

    <clipPath id="ChromeLeftSide" clipPathUnits="objectBoundingBox">
        <path d="M 1,-6.3914783e-7 A 0.5,0.24999999 0 0 0 0.9288833,0.00252693 0.5,0.24999999 0 0 0 0.8591453,0.01010965 0.5,0.24999999 0 0 0 0.7922794,0.02257519 0.5,0.24999999 0 0 0 0.7296645,0.03969375 0.5,0.24999999 0 0 0 0.6725644,0.06106324 0.5,0.24999999 0 0 0 0.6221276,0.08628153 a 0.5,0.24999999 0 0 0 -0.042739,0.02855009 0.5,0.24999999 0 0 0 -0.0342371,0.0313074 0.5,0.24999999 0 0 0 -0.024931,0.0334329 0.5,0.24999999 0 0 0 -0.0151668,0.034869 0.5,0.24999999 0 0 0 -0.005058,0.0355584 V 0.7536758 A 0.5,0.24999999 0 0 1 0.49494044,0.7855577 0.5,0.24999999 0 0 1 0.47977378,0.8204267 0.5,0.24999999 0 0 1 0.45484568,0.8538596 0.5,0.24999999 0 0 1 0.42060849,0.885167 0.5,0.24999999 0 0 1 0.37786949,0.9137171 0.5,0.24999999 0 0 1 0.32743288,0.9389354 0.5,0.24999999 0 0 1 0.27033268,0.9603049 0.5,0.24999999 0 0 1 0.20771788,0.9774235 0.5,0.24999999 0 0 1 0.14085208,0.989889 0.5,0.24999999 0 0 1 0.071114,0.997472 0.5,0.24999999 0 0 1 0,0.99999932 H 0.5 1 V 0.49999934 Z"/> 
    </clipPath>

    <clipPath id="ChromeRightSide" clipPathUnits="objectBoundingBox">
        <path d="M 0,-6.3914783e-7 A 0.5,0.24999999 0 0 1 0.0711167,0.00252693 a 0.5,0.24999999 0 0 1 0.069738,0.00758272 0.5,0.24999999 0 0 1 0.0668659,0.01246554 0.5,0.24999999 0 0 1 0.0626149,0.01711856 0.5,0.24999999 0 0 1 0.0571001,0.02136949 0.5,0.24999999 0 0 1 0.0504368,0.02521829 0.5,0.24999999 0 0 1 0.042739,0.02855009 0.5,0.24999999 0 0 1 0.0342371,0.0313074 0.5,0.24999999 0 0 1 0.024931,0.0334329 0.5,0.24999999 0 0 1 0.0151668,0.034869 0.5,0.24999999 0 0 1 0.005058,0.0355584 V 0.7536758 a 0.5,0.24999999 0 0 0 0.005055,0.0318819 0.5,0.24999999 0 0 0 0.0151667,0.034869 0.5,0.24999999 0 0 0 0.0249281,0.0334329 0.5,0.24999999 0 0 0 0.0342372,0.0313074 0.5,0.24999999 0 0 0 0.042739,0.0285501 0.5,0.24999999 0 0 0 0.0504366,0.0252183 0.5,0.24999999 0 0 0 0.0571002,0.0213695 0.5,0.24999999 0 0 0 0.0626148,0.0171186 A 0.5,0.24999999 0 0 0 0.85914792,0.989889 0.5,0.24999999 0 0 0 0.928886,0.997472 0.5,0.24999999 0 0 0 1,0.99999932 H 0.5 0 V 0.49999934 Z"/> 
    </clipPath>

    <clipPath id="ChromeLeftSideClipped" clipPathUnits="objectBoundingBox">
        <path d="M 1,0 V 0.5 1 A 0.5,0.24999999 0 0 1 0.9296875,0.99804688 0.5,0.24999999 0 0 1 0.859375,0.99023438 0.5,0.24999999 0 0 1 0.79296875,0.9765625 0.5,0.24999999 0 0 1 0.73046875,0.9609375 0.5,0.24999999 0 0 1 0.671875,0.93945312 0.5,0.24999999 0 0 1 0.62304688,0.9140625 0.5,0.24999999 0 0 1 0.58007812,0.88476562 0.5,0.24999999 0 0 1 0.54492188,0.85351562 0.5,0.24999999 0 0 1 0.51953125,0.8203125 0.5,0.24999999 0 0 1 0.50585938,0.78515625 0.5,0.24999999 0 0 1 0.5,0.75390625 V 0.25 a 0.5,0.24999999 0 0 0 0,-0.001953 0.5,0.24999999 0 0 0 0,-0.001953 0.5,0.24999999 0 0 0 0,-0.001953 0.5,0.24999999 0 0 0 0,-0.001953 0.5,0.24999999 0 0 0 0,-0.001953 0.5,0.24999999 0 0 0 0,-0.001953 0.5,0.24999999 0 0 0 0,-0.001953 0.5,0.24999999 0 0 0 0,-0.001953 0.5,0.24999999 0 0 0 0.001953,0 0.5,0.24999999 0 0 0 0,-0.001953 0.5,0.24999999 0 0 0 0,-0.001953 0.5,0.24999999 0 0 0 0,-0.001953 0.5,0.24999999 0 0 0 0,-0.001953 0.5,0.24999999 0 0 0 0,-0.001953 0.5,0.24999999 0 0 0 0,-0.001953 0.5,0.24999999 0 0 0 0.001953,0 0.5,0.24999999 0 0 0 0,-0.001953 0.5,0.24999999 0 0 0 0,-0.001953 0.5,0.24999999 0 0 0 0,-0.001953 0.5,0.24999999 0 0 0 0,-0.001953 0.5,0.24999999 0 0 0 0.001953,0 A 0.5,0.24999999 0 0 1 0.5195309,0.1796897 0.5,0.24999999 0 0 1 0.5449215,0.1464866 0.5,0.24999999 0 0 1 0.5800777,0.1152366 0.5,0.24999999 0 0 1 0.6230465,0.0859375 0.5,0.24999999 0 0 1 0.6718746,0.06054687 0.5,0.24999999 0 0 1 0.7304684,0.0390625 0.5,0.24999999 0 0 1 0.7929684,0.0234375 0.5,0.24999999 0 0 1 0.859375,0.00976563 0.5,0.24999999 0 0 1 0.9296875,0.00195313 0.5,0.24999999 0 0 1 1,0 Z"/> 
    </clipPath>

    <clipPath id="ChromeRightSideClipped" clipPathUnits="objectBoundingBox">
        <path d="M 0 0 L 0 0.5 L 0 1 A 0.5 0.24999999 0 0 0 0.0703125 0.99804688 A 0.5 0.24999999 0 0 0 0.140625 0.99023438 A 0.5 0.24999999 0 0 0 0.20703125 0.9765625 A 0.5 0.24999999 0 0 0 0.26953125 0.9609375 A 0.5 0.24999999 0 0 0 0.328125 0.93945312 A 0.5 0.24999999 0 0 0 0.37695312 0.9140625 A 0.5 0.24999999 0 0 0 0.41992188 0.88476562 A 0.5 0.24999999 0 0 0 0.45507812 0.85351562 A 0.5 0.24999999 0 0 0 0.48046875 0.8203125 A 0.5 0.24999999 0 0 0 0.49414062 0.78515625 A 0.5 0.24999999 0 0 0 0.5 0.75390625 L 0.5 0.25 A 0.5 0.24999999 0 0 1 0.5 0.24804688 A 0.5 0.24999999 0 0 1 0.5 0.24609375 A 0.5 0.24999999 0 0 1 0.5 0.24414062 A 0.5 0.24999999 0 0 1 0.5 0.2421875 A 0.5 0.24999999 0 0 1 0.5 0.24023438 A 0.5 0.24999999 0 0 1 0.5 0.23828125 A 0.5 0.24999999 0 0 1 0.5 0.23632812 A 0.5 0.24999999 0 0 1 0.5 0.234375 A 0.5 0.24999999 0 0 1 0.49804688 0.234375 A 0.5 0.24999999 0 0 1 0.49804688 0.23242188 A 0.5 0.24999999 0 0 1 0.49804688 0.23046875 A 0.5 0.24999999 0 0 1 0.49804688 0.22851562 A 0.5 0.24999999 0 0 1 0.49804688 0.2265625 A 0.5 0.24999999 0 0 1 0.49804688 0.22460938 A 0.5 0.24999999 0 0 1 0.49804688 0.22265625 A 0.5 0.24999999 0 0 1 0.49609375 0.22265625 A 0.5 0.24999999 0 0 1 0.49609375 0.22070312 A 0.5 0.24999999 0 0 1 0.49609375 0.21875 A 0.5 0.24999999 0 0 1 0.49609375 0.21679688 A 0.5 0.24999999 0 0 1 0.49609375 0.21484375 A 0.5 0.24999999 0 0 1 0.49414062 0.21484375 A 0.5 0.24999999 0 0 0 0.48046875 0.1796875 A 0.5 0.24999999 0 0 0 0.45507812 0.14648438 A 0.5 0.24999999 0 0 0 0.41992188 0.11523438 A 0.5 0.24999999 0 0 0 0.37695312 0.0859375 A 0.5 0.24999999 0 0 0 0.328125 0.060546875 A 0.5 0.24999999 0 0 0 0.26953125 0.0390625 A 0.5 0.24999999 0 0 0 0.20703125 0.0234375 A 0.5 0.24999999 0 0 0 0.140625 0.009765625 A 0.5 0.24999999 0 0 0 0.0703125 0.001953125 A 0.5 0.24999999 0 0 0 0 0 z"/> 
    </clipPath>

<!-- Edge -->

    <clipPath id="EdgeLeftSide" clipPathUnits="objectBoundingBox">
        <path d=""/> 
    </clipPath>

    <clipPath id="EdgeRightSide" clipPathUnits="objectBoundingBox">
        <path d=""/> 
    </clipPath>

    <clipPath id="EdgeLeftSideClipped" clipPathUnits="objectBoundingBox">
        <path d=""/> 
    </clipPath>

    <clipPath id="EdgeRightSideClipped" clipPathUnits="objectBoundingBox">
        <path d=""/> 
    </clipPath>

</svg>