<?xml version="1.0" encoding="UTF-8" standalone="no"?>
<!-- Created with Inkscape (http://www.inkscape.org/) -->

<svg
   width="16"
   height="16"
   viewBox="0 0 16 16"
   version="1.1"
   id="svg5"
   inkscape:version="1.1 (c68e22c387, 2021-05-23)"
   sodipodi:docname="tab_icon_mask.svg"
   xmlns:inkscape="http://www.inkscape.org/namespaces/inkscape"
   xmlns:sodipodi="http://sodipodi.sourceforge.net/DTD/sodipodi-0.dtd"
   xmlns="http://www.w3.org/2000/svg"
   xmlns:svg="http://www.w3.org/2000/svg">
  <sodipodi:namedview
     id="namedview7"
     pagecolor="#ffffff"
     bordercolor="#999999"
     borderopacity="1"
     inkscape:pageshadow="0"
     inkscape:pageopacity="0"
     inkscape:pagecheckerboard="0"
     inkscape:document-units="px"
     showgrid="false"
     units="px"
     inkscape:snap-page="true"
     inkscape:zoom="23.71807"
     inkscape:cx="9.0648187"
     inkscape:cy="9.1913045"
     inkscape:window-width="1920"
     inkscape:window-height="1018"
     inkscape:window-x="-8"
     inkscape:window-y="-8"
     inkscape:window-maximized="1"
     inkscape:current-layer="layer1" />
  <defs
     id="defs2" />
  <g
     inkscape:label="Слой 1"
     inkscape:groupmode="layer"
     id="layer1">
    <path
       id="path1181"
       style="fill:#000000;fill-rule:evenodd;stroke-width:0;stroke-dashoffset:10;stroke:none"
       d="M 0 0 L 0 16 L 16 16 L 16 10 C 16 10 15.959961 10.000488 15.886719 9.9980469 C 15.813477 9.9956055 15.707031 9.9902344 15.570312 9.9804688 C 15.433594 9.9707031 15.268555 9.9555664 15.078125 9.9335938 C 14.98291 9.9226074 14.880249 9.9094849 14.773438 9.8945312 C 14.666626 9.8795776 14.554688 9.8632812 14.4375 9.84375 C 14.320312 9.8242188 14.198608 9.802063 14.072266 9.7773438 C 13.945923 9.7526245 13.813965 9.7258301 13.679688 9.6953125 C 13.54541 9.6647949 13.408569 9.6306763 13.267578 9.59375 C 13.126587 9.5568237 12.982422 9.5166016 12.835938 9.4726562 C 12.689453 9.4287109 12.541382 9.3816528 12.390625 9.3300781 C 12.239868 9.2785034 12.087402 9.2219238 11.933594 9.1621094 C 11.779785 9.1022949 11.62439 9.0393677 11.46875 8.9707031 C 11.31311 8.9020386 11.15625 8.828125 11 8.75 C 10.84375 8.671875 10.68689 8.5881958 10.53125 8.5 C 10.45343 8.4559021 10.376266 8.4119644 10.298828 8.3652344 C 10.22139 8.3185043 10.143311 8.2701416 10.066406 8.2207031 C 9.989502 8.1712646 9.9141083 8.1205826 9.8378906 8.0683594 C 9.761673 8.0161362 9.6847534 7.9613342 9.609375 7.90625 C 9.5339966 7.8511658 9.4591522 7.7943497 9.3847656 7.7363281 C 9.310379 7.6783066 9.2373047 7.6196289 9.1640625 7.5585938 C 9.0908203 7.4975586 9.0172577 7.4352188 8.9453125 7.3710938 C 8.8733673 7.3069687 8.8029175 7.2411194 8.7324219 7.1738281 C 8.6619263 7.1065369 8.5923309 7.0373306 8.5234375 6.9667969 C 8.4545441 6.8962631 8.3874512 6.8238525 8.3203125 6.75 C 8.2531738 6.6761475 8.1863251 6.6006851 8.1210938 6.5234375 C 8.0558624 6.4461899 7.9909058 6.3678284 7.9277344 6.2871094 C 7.864563 6.2063904 7.8031464 6.1233292 7.7421875 6.0390625 C 7.6812286 5.9547958 7.6210938 5.8691406 7.5625 5.78125 C 7.5039062 5.6933594 7.446701 5.6033096 7.390625 5.5117188 C 7.334549 5.4201279 7.2799683 5.3277893 7.2265625 5.2324219 C 7.1731567 5.1370544 7.1208954 5.0386734 7.0703125 4.9394531 C 7.0197296 4.8402328 6.9694824 4.7398682 6.921875 4.6367188 C 6.8742676 4.5335693 6.8296356 4.4274673 6.7851562 4.3203125 C 6.7406769 4.2131577 6.6974487 4.1053772 6.65625 3.9941406 C 6.6150513 3.8829041 6.5748749 3.7677383 6.5371094 3.6523438 C 6.4993439 3.5369492 6.4638672 3.4204102 6.4296875 3.3007812 C 6.3955078 3.1811523 6.3624725 3.0594864 6.3320312 2.9355469 C 6.30159 2.8116074 6.2745972 2.684967 6.2480469 2.5566406 C 6.2214966 2.4283142 6.1963348 2.2988052 6.1738281 2.1660156 C 6.1513214 2.033226 6.1315918 1.8970947 6.1132812 1.7597656 C 6.0949707 1.6224365 6.0784149 1.4837418 6.0644531 1.3417969 C 6.0504913 1.199852 6.0387573 1.0548401 6.0292969 0.90820312 C 6.0198364 0.76156616 6.012619 0.61234283 6.0078125 0.4609375 C 6.003006 0.30953217 6 0.15625 6 0 L 0 0 z " />
  </g>
</svg>
