
<svg
 xmlns="http://www.w3.org/2000/svg"
 width="16"
 height="16"
 viewBox="0 0 16 16"
 fill="#FFFFFF"><path
 d="M 6.2695312 0 L 0 0 L 0 16 L 16 16 L 16 9.7304688 A 8 8 0 0 1 15.138672 9.9179688 A 8 8 0 0 1 14 10 A 8 8 0 0 1 12.861328 9.9179688 A 8 8 0 0 1 11.746094 9.6757812 A 8 8 0 0 1 10.675781 9.2773438 A 8 8 0 0 1 9.6757812 8.7304688 A 8 8 0 0 1 8.7617188 8.046875 A 8 8 0 0 1 7.953125 7.2382812 A 8 8 0 0 1 7.2695312 6.3242188 A 8 8 0 0 1 6.7226562 5.3242188 A 8 8 0 0 1 6.3242188 4.2539062 A 8 8 0 0 1 6.0820312 3.1386719 A 8 8 0 0 1 6 2 A 8 8 0 0 1 6.0820312 0.86132812 A 8 8 0 0 1 6.2695312 0 z"/>
</svg>