<!-- Created by QNetITQ for the WaveFox project -->

<svg xmlns="http://www.w3.org/2000/svg" width="16" height="16" viewBox="0 0 16 16">

    <path d="M 8 7.3027344 A 0.3139529 0.31395297 0 0 0 7.4648438 7.0800781 L 6.7148438 7.8300781 L 4.0625 5.1796875 A 0.6179073 0.61790744 0 0 0 3.6445312 5 A 0.6179073 0.61790744 0 0 0 3.34375 5.0683594 A 0.4959256 0.49592571 0 0 0 3.0683594 5.34375 A 0.6179073 0.61790744 0 0 0 3.1796875 6.0625 L 5.8300781 8.7148438 L 5.0800781 9.4648438 A 0.3139529 0.31395297 0 0 0 5.3027344 10 L 7.8105469 10 L 8 9.8125 L 8 7.3027344 z"/>
    <path d="M 8 2 L 2 2 A 2 2 0 0 0 0 4 L 0 13 A 2 2 0 0 0 2 15 L 8 15 L 8 13.75 L 1.8496094 13.75 L 1.25 13.150391 L 1.25 3.8496094 L 1.8496094 3.25 L 8 3.25 L 8 2 z"/>

</svg>