<!-- Created by QNetITQ for the WaveFox project -->

<svg xmlns="http://www.w3.org/2000/svg" width="32" height="32" viewBox="0 0 32 32" preserveAspectRatio="none">

    <path fill="context-fill" d="M 0 0 L 0 32 L 12 32 A 4 4 0 0 0 12.568359 31.958984 A 4 4 0 0 0 13.126953 31.837891 A 4 4 0 0 0 13.662109 31.638672 A 4 4 0 0 0 14.162109 31.365234 A 4 4 0 0 0 14.619141 31.023438 A 4 4 0 0 0 15.023438 30.619141 A 4 4 0 0 0 15.365234 30.162109 A 4 4 0 0 0 15.638672 29.662109 A 4 4 0 0 0 15.837891 29.126953 A 4 4 0 0 0 15.958984 28.568359 A 4 4 0 0 0 16 28 L 16 4 A 4 4 0 0 0 15.958984 3.4316406 A 4 4 0 0 0 15.837891 2.8730469 A 4 4 0 0 0 15.638672 2.3378906 A 4 4 0 0 0 15.365234 1.8378906 A 4 4 0 0 0 15.023438 1.3808594 A 4 4 0 0 0 14.619141 0.9765625 A 4 4 0 0 0 14.162109 0.63476562 A 4 4 0 0 0 13.662109 0.36132812 A 4 4 0 0 0 13.126953 0.16210938 A 4 4 0 0 0 12.568359 0.041015625 A 4 4 0 0 0 12 0 L 0 0 z M 8.0039062 3.8242188 A 4 4 0 0 0 8.0019531 3.8320312 A 4 4 0 0 1 8.0039062 3.8242188 z" />

</svg>
