<!-- Created by QNetITQ for the WaveFox project -->

<svg xmlns="http://www.w3.org/2000/svg" width="36" height="36" viewBox="0 0 1 1" preserveAspectRatio="none">

    <defs>
        <path id="Path" d="m 0.50000867,0.49999547 c 0.00521,0.03125 0.0104167,0.0625 0.0159505,0.0930981 0.002767,0.0152995 0.005599,0.0304631 0.008571,0.0453559 0.002974,0.0148919 0.00608,0.0295139 0.009331,0.0438368 0.003255,0.0143221 0.006684,0.0283476 0.0103081,0.0419375 0.00362,0.0135899 0.00743,0.0267474 0.0115017,0.0394418 0.004067,0.0126945 0.008369,0.0249301 0.012967,0.0365668 0.002294,0.005815 0.004663,0.0114578 0.007107,0.0169809 0.002443,0.005525 0.004995,0.0109054 0.007595,0.0161129 0.002601,0.00521 0.005268,0.0102493 0.008026,0.0151363 0.002767,0.004887 0.005599,0.009637 0.008517,0.0142144 0.002916,0.00458 0.005939,0.009015 0.009005,0.0132917 0.003073,0.004274 0.006229,0.008382 0.009439,0.0123698 0.003214,0.003984 0.006469,0.007852 0.009819,0.0115556 0.003355,0.003711 0.006817,0.007248 0.0103082,0.0106875 0.003487,0.003437 0.007016,0.006751 0.0106337,0.009928 0.00362,0.003181 0.007322,0.006237 0.0110677,0.009168 0.003744,0.002932 0.007529,0.005715 0.0113932,0.00841 0.00386,0.002692 0.007794,0.005293 0.0117734,0.007761 0.003976,0.00246 0.00801,0.004812 0.0120989,0.007057 0.004084,0.002245 0.008233,0.004365 0.0124245,0.006403 0.008382,0.004067 0.0169478,0.00772 0.0257161,0.011013 0.008769,0.003296 0.0177388,0.00624 0.0268559,0.008843 0.009115,0.002604 0.0183567,0.004897 0.0277777,0.006891 0.009421,0.001994 0.0190152,0.003689 0.0286996,0.005154 0.009684,0.001465 0.0194965,0.002672 0.0294054,0.003689 0.009909,0.001018 0.0199106,0.001845 0.0300017,0.002496 0.0100903,6.5126e-4 0.020256,0.001153 0.0304904,0.00152 0.0102344,3.6679e-4 0.0205343,5.9698e-4 0.0308698,7.5979e-4 C 0.95833419,1 0.97916668,1 1,1 V 0 C 0.83333462,0 0.66668324,-1.3915383e-5 0.58333655,0.16666538 0.54166495,0.25000428 0.52083909,0.3749964 0.5000056,0.49999547 Z"/>
    </defs>

    <use href="#Path" fill="context-fill"/>

    <clipPath id="ClipPath" clipPathUnits="objectBoundingBox">
        <use href="#Path"/>
    </clipPath>

    <mask id="Mask" maskContentUnits="objectBoundingBox">
        <use href="#Path" fill="#ffffff"/>
    </mask>

</svg>
