<!-- Created by QNetITQ for the WaveFox project -->

<svg xmlns="http://www.w3.org/2000/svg" width="32" height="32" viewBox="0 0 32 32" preserveAspectRatio="none">

    <path fill="context-fill" d="m 8,0 a 8,8 0 0 1 1.138672,0.08203125 8,8 0 0 1 1.115234,0.2421875 8,8 0 0 1 1.070313,0.3984375 8,8 0 0 1 1,0.54687495 8,8 0 0 1 0.914062,0.6835938 8,8 0 0 1 0.808594,0.8085938 8,8 0 0 1 0.683594,0.9140624 8,8 0 0 1 0.546875,1 8,8 0 0 1 0.398437,1.0703126 8,8 0 0 1 0.242188,1.1152343 A 8,8 0 0 1 16,8 v 16 a 8,8 0 0 0 0.08203,1.138672 8,8 0 0 0 0.242188,1.115234 8,8 0 0 0 0.398437,1.070313 8,8 0 0 0 0.546875,1 8,8 0 0 0 0.683594,0.914062 8,8 0 0 0 0.808594,0.808594 8,8 0 0 0 0.914062,0.683594 8,8 0 0 0 1,0.546875 8,8 0 0 0 1.070313,0.398437 8,8 0 0 0 1.115234,0.242188 A 8,8 0 0 0 24,32 H 16 0 V 8 0 Z" />

</svg>
