<!-- Created by QNetITQ for the WaveFox project -->

<svg xmlns="http://www.w3.org/2000/svg" width="16" height="16" viewBox="0 0 1 1" preserveAspectRatio="none">

    <defs>
        <path id="Path" d="M 0 0 L 0 1 L 0.5 1 A 0.5 0.5 0 0 1 0.50585938 0.9296875 A 0.5 0.5 0 0 1 0.51953125 0.859375 A 0.5 0.5 0 0 1 0.54492188 0.79296875 A 0.5 0.5 0 0 1 0.58007812 0.73046875 A 0.5 0.5 0 0 1 0.62304688 0.671875 A 0.5 0.5 0 0 1 0.671875 0.62304688 A 0.5 0.5 0 0 1 0.73046875 0.58007812 A 0.5 0.5 0 0 1 0.79296875 0.54492188 A 0.5 0.5 0 0 1 0.859375 0.51953125 A 0.5 0.5 0 0 1 0.9296875 0.50585938 A 0.5 0.5 0 0 1 1 0.5 L 1 0 L 0 0 z"/>
    </defs>

    <use href="#Path" fill="#000000"/>

    <clipPath id="ClipPath" clipPathUnits="objectBoundingBox">
        <use href="#Path"/>
    </clipPath>

</svg>