<!-- Created by QNetITQ for the WaveFox project -->

<svg xmlns="http://www.w3.org/2000/svg" width="16" height="16" viewBox="0 0 1 1" preserveAspectRatio="none">

    <clipPath id="ClipPath" clipPathUnits="objectBoundingBox">
        <path d="m 0,0 v 0.5 a 0.5,0.5 0 0 1 0.02453613,6.1062e-4 0.5,0.5 0 0 1 0.02441406,0.001831 0.5,0.5 0 0 1 0.02441407,0.00293 0.5,0.5 0 0 1 0.02416992,0.004272 0.5,0.5 0 0 1 0.02392578,0.005371 0.5,0.5 0 0 1 0.0236816,0.00647 0.5,0.5 0 0 1 0.0233154,0.00769 0.5,0.5 0 0 1 0.0228271,0.008911 0.5,0.5 0 0 1 0.0224609,0.009888 0.5,0.5 0 0 1 0.0219726,0.0111084 0.5,0.5 0 0 1 0.0213623,0.012085 0.5,0.5 0 0 1 0.020752,0.0130615 0.5,0.5 0 0 1 0.0200195,0.0141602 0.5,0.5 0 0 1 0.0192871,0.0151367 0.5,0.5 0 0 1 0.0186768,0.0159913 0.5,0.5 0 0 1 0.0177002,0.0169677 0.5,0.5 0 0 1 0.0169678,0.0177002 0.5,0.5 0 0 1 0.0159912,0.0186768 0.5,0.5 0 0 1 0.0151367,0.0192871 0.5,0.5 0 0 1 0.0141602,0.0200196 0.5,0.5 0 0 1 0.0130615,0.0207519 0.5,0.5 0 0 1 0.012085,0.0213623 0.5,0.5 0 0 1 0.0111084,0.0219726 0.5,0.5 0 0 1 0.009888,0.0224609 0.5,0.5 0 0 1 0.008911,0.0228272 0.5,0.5 0 0 1 0.00769,0.0233154 0.5,0.5 0 0 1 0.00647,0.0236817 0.5,0.5 0 0 1 0.005371,0.0239257 0.5,0.5 0 0 1 0.004272,0.0241699 0.5,0.5 0 0 1 0.00293,0.0244141 0.5,0.5 0 0 1 0.001831,0.0244141 A 0.5,0.5 0 0 1 0.5,1 H 1 V 0 Z"/>
    </clipPath>

    <rect x="0" y="0" width="1" height="1" fill="#000000" clip-path="url(#ClipPath)"/>

</svg>