<!-- Created by QNetITQ for the WaveFox project -->

<svg xmlns="http://www.w3.org/2000/svg" width="32" height="32" viewBox="0 0 32 32" preserveAspectRatio="none">

    <path fill="context-fill" d="m 4,0 a 12,12 0 0 1 1.707031,0.12304688 12,12 0 0 1 1.673828,0.36328124 12,12 0 0 1 1.603516,0.59765628 12,12 0 0 1 1.503906,0.8203125 12,12 0 0 1 1.369141,1.0273437 12,12 0 0 1 1.210937,1.2109375 12,12 0 0 1 1.027344,1.3691407 12,12 0 0 1 0.820313,1.5039062 12,12 0 0 1 0.597656,1.6035156 12,12 0 0 1 0.363281,1.6738284 A 12,12 0 0 1 16,12 v 8 a 12,12 0 0 0 0.123047,1.707031 12,12 0 0 0 0.363281,1.673828 12,12 0 0 0 0.597656,1.603516 12,12 0 0 0 0.820313,1.503906 12,12 0 0 0 1.027344,1.369141 12,12 0 0 0 1.210937,1.210937 12,12 0 0 0 1.369141,1.027344 12,12 0 0 0 1.503906,0.820313 12,12 0 0 0 1.603516,0.597656 12,12 0 0 0 1.673828,0.363281 A 12,12 0 0 0 28,32 H 16 0 V 23.283203 0.6875 0 Z" />

</svg>
