<!-- Created by QNetITQ for the WaveFox project -->

<svg xmlns="http://www.w3.org/2000/svg" width="36" height="36" viewBox="0 0 1 1" preserveAspectRatio="none">

    <defs>
        <path id="Path" d="M 1,-6.3914783e-7 A 0.5,0.24999999 0 0 0 0.9288833,0.00252693 0.5,0.24999999 0 0 0 0.8591453,0.01010965 0.5,0.24999999 0 0 0 0.7922794,0.02257519 0.5,0.24999999 0 0 0 0.7296645,0.03969375 0.5,0.24999999 0 0 0 0.6725644,0.06106324 0.5,0.24999999 0 0 0 0.6221276,0.08628153 a 0.5,0.24999999 0 0 0 -0.042739,0.02855009 0.5,0.24999999 0 0 0 -0.0342371,0.0313074 0.5,0.24999999 0 0 0 -0.024931,0.0334329 0.5,0.24999999 0 0 0 -0.0151668,0.034869 0.5,0.24999999 0 0 0 -0.005058,0.0355584 V 0.7536758 A 0.5,0.24999999 0 0 1 0.49494044,0.7855577 0.5,0.24999999 0 0 1 0.47977378,0.8204267 0.5,0.24999999 0 0 1 0.45484568,0.8538596 0.5,0.24999999 0 0 1 0.42060849,0.885167 0.5,0.24999999 0 0 1 0.37786949,0.9137171 0.5,0.24999999 0 0 1 0.32743288,0.9389354 0.5,0.24999999 0 0 1 0.27033268,0.9603049 0.5,0.24999999 0 0 1 0.20771788,0.9774235 0.5,0.24999999 0 0 1 0.14085208,0.989889 0.5,0.24999999 0 0 1 0.071114,0.997472 0.5,0.24999999 0 0 1 0,0.99999932 H 0.5 1 V 0.49999934 Z"/>
    </defs>

    <use href="#Path" fill="context-fill"/>

    <clipPath id="ClipPath" clipPathUnits="objectBoundingBox">
        <use href="#Path"/>
    </clipPath>

    <mask id="Mask" maskContentUnits="objectBoundingBox">
        <use href="#Path" fill="#ffffff"/>
    </mask>

</svg>
