<!-- Created by QNetITQ for the WaveFox project -->

<svg xmlns="http://www.w3.org/2000/svg" width="36" height="36" viewBox="0 0 1 1" preserveAspectRatio="none">

    <defs>
        <path id="Path" d="M 1,0 V 0.5 1 A 0.5,0.24999999 0 0 1 0.9296875,0.99804688 0.5,0.24999999 0 0 1 0.859375,0.99023438 0.5,0.24999999 0 0 1 0.79296875,0.9765625 0.5,0.24999999 0 0 1 0.73046875,0.9609375 0.5,0.24999999 0 0 1 0.671875,0.93945312 0.5,0.24999999 0 0 1 0.62304688,0.9140625 0.5,0.24999999 0 0 1 0.58007812,0.88476562 0.5,0.24999999 0 0 1 0.54492188,0.85351562 0.5,0.24999999 0 0 1 0.51953125,0.8203125 0.5,0.24999999 0 0 1 0.50585938,0.78515625 0.5,0.24999999 0 0 1 0.5,0.75390625 V 0.25 a 0.5,0.24999999 0 0 0 0,-0.001953 0.5,0.24999999 0 0 0 0,-0.001953 0.5,0.24999999 0 0 0 0,-0.001953 0.5,0.24999999 0 0 0 0,-0.001953 0.5,0.24999999 0 0 0 0,-0.001953 0.5,0.24999999 0 0 0 0,-0.001953 0.5,0.24999999 0 0 0 0,-0.001953 0.5,0.24999999 0 0 0 0,-0.001953 0.5,0.24999999 0 0 0 0.001953,0 0.5,0.24999999 0 0 0 0,-0.001953 0.5,0.24999999 0 0 0 0,-0.001953 0.5,0.24999999 0 0 0 0,-0.001953 0.5,0.24999999 0 0 0 0,-0.001953 0.5,0.24999999 0 0 0 0,-0.001953 0.5,0.24999999 0 0 0 0,-0.001953 0.5,0.24999999 0 0 0 0.001953,0 0.5,0.24999999 0 0 0 0,-0.001953 0.5,0.24999999 0 0 0 0,-0.001953 0.5,0.24999999 0 0 0 0,-0.001953 0.5,0.24999999 0 0 0 0,-0.001953 0.5,0.24999999 0 0 0 0.001953,0 A 0.5,0.24999999 0 0 1 0.5195309,0.1796897 0.5,0.24999999 0 0 1 0.5449215,0.1464866 0.5,0.24999999 0 0 1 0.5800777,0.1152366 0.5,0.24999999 0 0 1 0.6230465,0.0859375 0.5,0.24999999 0 0 1 0.6718746,0.06054687 0.5,0.24999999 0 0 1 0.7304684,0.0390625 0.5,0.24999999 0 0 1 0.7929684,0.0234375 0.5,0.24999999 0 0 1 0.859375,0.00976563 0.5,0.24999999 0 0 1 0.9296875,0.00195313 0.5,0.24999999 0 0 1 1,0 Z"/>
    </defs>

    <use href="#Path" fill="context-fill"/>

    <clipPath id="ClipPath" clipPathUnits="objectBoundingBox">
        <use href="#Path"/>
    </clipPath>

    <mask id="Mask" maskContentUnits="objectBoundingBox">
        <use href="#Path" fill="#ffffff"/>
    </mask>

</svg>
