<!-- Created by QNetITQ for the WaveFox project -->

<svg xmlns="http://www.w3.org/2000/svg" width="36" height="36" viewBox="0 0 1 1" preserveAspectRatio="none">

    <defs>
        <path id="Path" d="M 0,-6.3914783e-7 A 0.5,0.24999999 0 0 1 0.0711167,0.00252693 a 0.5,0.24999999 0 0 1 0.069738,0.00758272 0.5,0.24999999 0 0 1 0.0668659,0.01246554 0.5,0.24999999 0 0 1 0.0626149,0.01711856 0.5,0.24999999 0 0 1 0.0571001,0.02136949 0.5,0.24999999 0 0 1 0.0504368,0.02521829 0.5,0.24999999 0 0 1 0.042739,0.02855009 0.5,0.24999999 0 0 1 0.0342371,0.0313074 0.5,0.24999999 0 0 1 0.024931,0.0334329 0.5,0.24999999 0 0 1 0.0151668,0.034869 0.5,0.24999999 0 0 1 0.005058,0.0355584 V 0.7536758 a 0.5,0.24999999 0 0 0 0.005055,0.0318819 0.5,0.24999999 0 0 0 0.0151667,0.034869 0.5,0.24999999 0 0 0 0.0249281,0.0334329 0.5,0.24999999 0 0 0 0.0342372,0.0313074 0.5,0.24999999 0 0 0 0.042739,0.0285501 0.5,0.24999999 0 0 0 0.0504366,0.0252183 0.5,0.24999999 0 0 0 0.0571002,0.0213695 0.5,0.24999999 0 0 0 0.0626148,0.0171186 A 0.5,0.24999999 0 0 0 0.85914792,0.989889 0.5,0.24999999 0 0 0 0.928886,0.997472 0.5,0.24999999 0 0 0 1,0.99999932 H 0.5 0 V 0.49999934 Z"/>
    </defs>

    <use href="#Path" fill="context-fill"/>

    <clipPath id="ClipPath" clipPathUnits="objectBoundingBox">
        <use href="#Path"/>
    </clipPath>

    <mask id="Mask" maskContentUnits="objectBoundingBox">
        <use href="#Path" fill="#ffffff"/>
    </mask>

</svg>
