<!-- Created by QNetITQ for the WaveFox project -->

<svg xmlns="http://www.w3.org/2000/svg" width="36" height="36" viewBox="0 0 1 1" preserveAspectRatio="none">

    <defs>
        <path id="Path" d="M 0 0 L 0 0.5 L 0 1 A 0.5 0.24999999 0 0 0 0.0703125 0.99804688 A 0.5 0.24999999 0 0 0 0.140625 0.99023438 A 0.5 0.24999999 0 0 0 0.20703125 0.9765625 A 0.5 0.24999999 0 0 0 0.26953125 0.9609375 A 0.5 0.24999999 0 0 0 0.328125 0.93945312 A 0.5 0.24999999 0 0 0 0.37695312 0.9140625 A 0.5 0.24999999 0 0 0 0.41992188 0.88476562 A 0.5 0.24999999 0 0 0 0.45507812 0.85351562 A 0.5 0.24999999 0 0 0 0.48046875 0.8203125 A 0.5 0.24999999 0 0 0 0.49414062 0.78515625 A 0.5 0.24999999 0 0 0 0.5 0.75390625 L 0.5 0.25 A 0.5 0.24999999 0 0 1 0.5 0.24804688 A 0.5 0.24999999 0 0 1 0.5 0.24609375 A 0.5 0.24999999 0 0 1 0.5 0.24414062 A 0.5 0.24999999 0 0 1 0.5 0.2421875 A 0.5 0.24999999 0 0 1 0.5 0.24023438 A 0.5 0.24999999 0 0 1 0.5 0.23828125 A 0.5 0.24999999 0 0 1 0.5 0.23632812 A 0.5 0.24999999 0 0 1 0.5 0.234375 A 0.5 0.24999999 0 0 1 0.49804688 0.234375 A 0.5 0.24999999 0 0 1 0.49804688 0.23242188 A 0.5 0.24999999 0 0 1 0.49804688 0.23046875 A 0.5 0.24999999 0 0 1 0.49804688 0.22851562 A 0.5 0.24999999 0 0 1 0.49804688 0.2265625 A 0.5 0.24999999 0 0 1 0.49804688 0.22460938 A 0.5 0.24999999 0 0 1 0.49804688 0.22265625 A 0.5 0.24999999 0 0 1 0.49609375 0.22265625 A 0.5 0.24999999 0 0 1 0.49609375 0.22070312 A 0.5 0.24999999 0 0 1 0.49609375 0.21875 A 0.5 0.24999999 0 0 1 0.49609375 0.21679688 A 0.5 0.24999999 0 0 1 0.49609375 0.21484375 A 0.5 0.24999999 0 0 1 0.49414062 0.21484375 A 0.5 0.24999999 0 0 0 0.48046875 0.1796875 A 0.5 0.24999999 0 0 0 0.45507812 0.14648438 A 0.5 0.24999999 0 0 0 0.41992188 0.11523438 A 0.5 0.24999999 0 0 0 0.37695312 0.0859375 A 0.5 0.24999999 0 0 0 0.328125 0.060546875 A 0.5 0.24999999 0 0 0 0.26953125 0.0390625 A 0.5 0.24999999 0 0 0 0.20703125 0.0234375 A 0.5 0.24999999 0 0 0 0.140625 0.009765625 A 0.5 0.24999999 0 0 0 0.0703125 0.001953125 A 0.5 0.24999999 0 0 0 0 0 z"/>
    </defs>

    <use href="#Path" fill="context-fill"/>

    <clipPath id="ClipPath" clipPathUnits="objectBoundingBox">
        <use href="#Path"/>
    </clipPath>

    <mask id="Mask" maskContentUnits="objectBoundingBox">
        <use href="#Path" fill="#ffffff"/>
    </mask>

</svg>
