<!-- Created by QNetITQ for the WaveFox project -->

<svg xmlns="http://www.w3.org/2000/svg" width="32" height="32" viewBox="0 0 32 32" preserveAspectRatio="none">

    <path fill="context-fill" d="M 20 0 A 4 4 0 0 0 19.431641 0.041015625 A 4 4 0 0 0 18.873047 0.16210938 A 4 4 0 0 0 18.337891 0.36132812 A 4 4 0 0 0 17.837891 0.63476562 A 4 4 0 0 0 17.380859 0.9765625 A 4 4 0 0 0 16.976562 1.3808594 A 4 4 0 0 0 16.634766 1.8378906 A 4 4 0 0 0 16.361328 2.3378906 A 4 4 0 0 0 16.162109 2.8730469 A 4 4 0 0 0 16.041016 3.4316406 A 4 4 0 0 0 16 4 L 16 28 A 4 4 0 0 1 15.958984 28.568359 A 4 4 0 0 1 15.837891 29.126953 A 4 4 0 0 1 15.638672 29.662109 A 4 4 0 0 1 15.365234 30.162109 A 4 4 0 0 1 15.023438 30.619141 A 4 4 0 0 1 14.619141 31.023438 A 4 4 0 0 1 14.162109 31.365234 A 4 4 0 0 1 13.662109 31.638672 A 4 4 0 0 1 13.126953 31.837891 A 4 4 0 0 1 12.568359 31.958984 A 4 4 0 0 1 12 32 L 16 32 L 32 32 L 32 0 L 20 0 z M 23.996094 3.8242188 A 4 4 0 0 1 23.998047 3.8320312 A 4 4 0 0 0 23.996094 3.8242188 z" />

</svg>
