<!-- Created by QNetITQ for the WaveFox project -->

<svg xmlns="http://www.w3.org/2000/svg" width="32" height="32" viewBox="0 0 32 32" preserveAspectRatio="none">

    <path fill="context-fill" d="m 12,0 a 4,4 0 0 1 0.568359,0.04101562 4,4 0 0 1 0.558594,0.12109376 4,4 0 0 1 0.535156,0.19921874 4,4 0 0 1 0.5,0.2734375 4,4 0 0 1 0.457032,0.34179688 4,4 0 0 1 0.404297,0.4042969 4,4 0 0 1 0.341796,0.4570312 4,4 0 0 1 0.273438,0.5 4,4 0 0 1 0.199219,0.5351563 4,4 0 0 1 0.121093,0.5585937 A 4,4 0 0 1 16,4 v 24 a 4,4 0 0 0 0.04102,0.568359 4,4 0 0 0 0.121093,0.558594 4,4 0 0 0 0.199219,0.535156 4,4 0 0 0 0.273438,0.5 4,4 0 0 0 0.341796,0.457032 4,4 0 0 0 0.404297,0.404297 4,4 0 0 0 0.457032,0.341796 4,4 0 0 0 0.5,0.273438 4,4 0 0 0 0.535156,0.199219 4,4 0 0 0 0.558594,0.121093 A 4,4 0 0 0 20,32 H 16 0 V 0 Z M 8.003906,3.8242188 a 4,4 0 0 0 -0.002,0.00781 4,4 0 0 1 0.002,-0.00781 z" />

</svg>
