<!-- Created by QNetITQ for the WaveFox project -->

<svg xmlns="http://www.w3.org/2000/svg" width="32" height="32" viewBox="0 0 32 32" preserveAspectRatio="none">

    <path fill="context-fill" d="M 32.000001,0 V 32 A 16,16 0 0 1 29.722657,31.837891 16,16 0 0 1 27.492188,31.351562 16,16 0 0 1 25.353516,30.554688 16,16 0 0 1 23.34961,29.460938 16,16 0 0 1 21.521485,28.091797 16,16 0 0 1 19.908204,26.478516 16,16 0 0 1 18.539063,24.650391 16,16 0 0 1 17.445313,22.646484 16,16 0 0 1 16.648439,20.507812 16,16 0 0 1 16.16211,18.277344 16,16 0 0 1 16.000001,16.158203 V 16 a 16,16 0 0 1 0.162109,-2.277344 16,16 0 0 1 0.486329,-2.230468 16,16 0 0 1 0.796874,-2.1386724 16,16 0 0 1 1.09375,-2.0039062 16,16 0 0 1 1.369141,-1.828125 16,16 0 0 1 1.613281,-1.6132813 16,16 0 0 1 1.828125,-1.3691406 16,16 0 0 1 2.003906,-1.09375 16,16 0 0 1 2.138672,-0.796875 A 16,16 0 0 1 29.722657,0.16210938 16,16 0 0 1 32.000001,0 Z" />

</svg>
