<!-- Created by QNetITQ for the WaveFox project -->

<svg xmlns="http://www.w3.org/2000/svg" width="32" height="32" viewBox="0 0 32 32" preserveAspectRatio="none">

    <path fill="context-fill" d="M 32 0 A 16 16 0 0 0 29.722656 0.16210938 A 16 16 0 0 0 27.492188 0.6484375 A 16 16 0 0 0 25.353516 1.4453125 A 16 16 0 0 0 23.349609 2.5390625 A 16 16 0 0 0 21.521484 3.9082031 A 16 16 0 0 0 19.908203 5.5214844 A 16 16 0 0 0 18.539062 7.3496094 A 16 16 0 0 0 17.445312 9.3535156 A 16 16 0 0 0 16.648438 11.492188 A 16 16 0 0 0 16.162109 13.722656 A 16 16 0 0 0 16 16 L 16 16.158203 A 16 16 0 0 1 15.837891 18.277344 A 16 16 0 0 1 15.351562 20.507812 A 16 16 0 0 1 14.554688 22.646484 A 16 16 0 0 1 13.460938 24.650391 A 16 16 0 0 1 12.091797 26.478516 A 16 16 0 0 1 10.478516 28.091797 A 16 16 0 0 1 8.6503906 29.460938 A 16 16 0 0 1 6.6464844 30.554688 A 16 16 0 0 1 4.5078125 31.351562 A 16 16 0 0 1 2.2773438 31.837891 A 16 16 0 0 1 0 32 L 16 32 L 32 32 L 32 0 z" />

</svg>
