<!-- Created by QNetITQ for the WaveFox project -->

<svg xmlns="http://www.w3.org/2000/svg" width="32" height="32" viewBox="0 0 32 32" preserveAspectRatio="none">

    <path fill="context-fill" d="M 0 0 L 0 32 A 16 16 0 0 0 2.2773438 31.837891 A 16 16 0 0 0 4.5078125 31.351562 A 16 16 0 0 0 6.6464844 30.554688 A 16 16 0 0 0 8.6503906 29.460938 A 16 16 0 0 0 10.478516 28.091797 A 16 16 0 0 0 12.091797 26.478516 A 16 16 0 0 0 13.460938 24.650391 A 16 16 0 0 0 14.554688 22.646484 A 16 16 0 0 0 15.351562 20.507812 A 16 16 0 0 0 15.837891 18.277344 A 16 16 0 0 0 16 16.158203 L 16 16 A 16 16 0 0 0 15.837891 13.722656 A 16 16 0 0 0 15.351562 11.492188 A 16 16 0 0 0 14.554688 9.3535156 A 16 16 0 0 0 13.460938 7.3496094 A 16 16 0 0 0 12.091797 5.5214844 A 16 16 0 0 0 10.478516 3.9082031 A 16 16 0 0 0 8.6503906 2.5390625 A 16 16 0 0 0 6.6464844 1.4453125 A 16 16 0 0 0 4.5078125 0.6484375 A 16 16 0 0 0 2.2773438 0.16210938 A 16 16 0 0 0 0 0 z" />

</svg>
