<!-- Created by QNetITQ for the WaveFox project -->

<svg xmlns="http://www.w3.org/2000/svg" width="32" height="32" viewBox="0 0 32 32" preserveAspectRatio="none">

    <path fill="context-fill" d="M 0 0 L 0 8 L 0 32 L 8 32 A 8 8 0 0 0 9.1386719 31.917969 A 8 8 0 0 0 10.253906 31.675781 A 8 8 0 0 0 11.324219 31.277344 A 8 8 0 0 0 12.324219 30.730469 A 8 8 0 0 0 13.238281 30.046875 A 8 8 0 0 0 14.046875 29.238281 A 8 8 0 0 0 14.730469 28.324219 A 8 8 0 0 0 15.277344 27.324219 A 8 8 0 0 0 15.675781 26.253906 A 8 8 0 0 0 15.917969 25.138672 A 8 8 0 0 0 16 24 L 16 8 A 8 8 0 0 0 15.917969 6.8613281 A 8 8 0 0 0 15.675781 5.7460938 A 8 8 0 0 0 15.277344 4.6757812 A 8 8 0 0 0 14.730469 3.6757812 A 8 8 0 0 0 14.046875 2.7617188 A 8 8 0 0 0 13.238281 1.953125 A 8 8 0 0 0 12.324219 1.2695312 A 8 8 0 0 0 11.324219 0.72265625 A 8 8 0 0 0 10.253906 0.32421875 A 8 8 0 0 0 9.1386719 0.08203125 A 8 8 0 0 0 8 0 L 0 0 z" />

</svg>
