<!-- Created by QNetITQ for the WaveFox project -->

<svg xmlns="http://www.w3.org/2000/svg" width="32" height="32" viewBox="0 0 32 32" preserveAspectRatio="none">

    <path fill="context-fill" d="m 32,0 v 32 c -0.499999,0 -1.000951,-1e-6 -1.498047,-0.0039 -0.497096,-0.0039 -0.990193,-0.01172 -1.478515,-0.02734 -0.488323,-0.01562 -0.971632,-0.03907 -1.445313,-0.07422 -0.23684,-0.01758 -0.471046,-0.03858 -0.703125,-0.0625 -0.232079,-0.02393 -0.460916,-0.0508 -0.6875,-0.08204 -0.226584,-0.03124 -0.451519,-0.06593 -0.671875,-0.105469 -0.220356,-0.03954 -0.436997,-0.08399 -0.650391,-0.132812 -0.213393,-0.04882 -0.423208,-0.103038 -0.628906,-0.16211 -0.205698,-0.05907 -0.406247,-0.123059 -0.603516,-0.193359 -0.197268,-0.0703 -0.39002,-0.146011 -0.578125,-0.228516 -0.188104,-0.08251 -0.372573,-0.171892 -0.550781,-0.267578 -0.178208,-0.09569 -0.350001,-0.19875 -0.517578,-0.308594 C 21.818751,30.241719 21.656213,30.124978 21.5,30 21.343787,29.875022 21.193652,29.74347 21.048828,29.603516 20.904004,29.463561 20.764946,29.315738 20.630859,29.162109 20.496773,29.008481 20.366187,28.847642 20.242188,28.681641 20.118188,28.51564 19.999328,28.345039 19.884766,28.167969 19.770203,27.990898 19.660464,27.807932 19.554688,27.621094 19.448911,27.434255 19.347642,27.242179 19.25,27.046875 19.152358,26.851571 19.058908,26.653639 18.96875,26.451172 18.878592,26.248705 18.792308,26.042312 18.708984,25.833984 18.542336,25.417329 18.387359,24.990879 18.244141,24.558594 18.100922,24.126309 17.968745,23.687497 17.84375,23.25 17.718755,22.812503 17.602212,22.37565 17.490234,21.943359 17.378256,21.511069 17.270182,21.084635 17.166016,20.667969 L 16,16 17.166016,11.333984 C 17.999349,8.0006546 18.999415,4.000351 21.5,2 24.000585,-3.5089965e-4 28.000004,0 32,0 Z" />

</svg>
