<!-- Created by QNetITQ for the WaveFox project -->

<svg xmlns="http://www.w3.org/2000/svg" width="32" height="32" viewBox="0 0 32 32" preserveAspectRatio="none">

    <path fill="context-fill" d="M 0 0 L 0 32 C 0.4999995 32 1.0009509 31.999999 1.4980469 31.996094 C 1.9951429 31.992188 2.4882395 31.984372 2.9765625 31.96875 C 3.4648855 31.953128 3.9481944 31.929681 4.421875 31.894531 C 4.6587153 31.876956 4.8929208 31.855953 5.125 31.832031 C 5.3570792 31.80811 5.5859157 31.781244 5.8125 31.75 C 6.0390843 31.718756 6.2640192 31.684075 6.484375 31.644531 C 6.7047308 31.604987 6.921372 31.560538 7.1347656 31.511719 C 7.3481593 31.462899 7.5579741 31.408681 7.7636719 31.349609 C 7.9693696 31.290538 8.1699193 31.22655 8.3671875 31.15625 C 8.5644557 31.08595 8.7572076 31.010239 8.9453125 30.927734 C 9.1334174 30.845229 9.3178857 30.755842 9.4960938 30.660156 C 9.6743018 30.56447 9.8460945 30.461406 10.013672 30.351562 C 10.181249 30.241719 10.343787 30.124978 10.5 30 C 10.656213 29.875022 10.806348 29.74347 10.951172 29.603516 C 11.095996 29.463561 11.235054 29.315738 11.369141 29.162109 C 11.503227 29.008481 11.633813 28.847642 11.757812 28.681641 C 11.881812 28.51564 12.000672 28.345039 12.115234 28.167969 C 12.229797 27.990898 12.339536 27.807932 12.445312 27.621094 C 12.551089 27.434255 12.652358 27.242179 12.75 27.046875 C 12.847642 26.851571 12.941092 26.653639 13.03125 26.451172 C 13.121408 26.248705 13.207692 26.042312 13.291016 25.833984 C 13.457664 25.417329 13.612641 24.990879 13.755859 24.558594 C 13.899078 24.126309 14.031255 23.687497 14.15625 23.25 C 14.281245 22.812503 14.397788 22.37565 14.509766 21.943359 C 14.621744 21.511069 14.729818 21.084635 14.833984 20.667969 L 16 16 L 14.833984 11.333984 C 14.000651 8.0006546 13.000585 4.000351 10.5 2 C 7.9994145 -0.00035089965 3.999996 0 0 0 z" />

</svg>
