<!-- Created by QNetITQ for the WaveFox project -->

<svg xmlns="http://www.w3.org/2000/svg" width="32" height="32" viewBox="0 0 32 32" preserveAspectRatio="none">

    <path fill="context-fill" d="m 32,0 v 32 c -0.666666,0 -1.332657,6.5e-4 -1.994141,-0.0098 -0.330742,-0.0052 -0.660789,-0.01367 -0.988281,-0.02539 -0.327491,-0.01172 -0.653624,-0.028 -0.976562,-0.04883 -0.322938,-0.02083 -0.641904,-0.04558 -0.958985,-0.07813 -0.31708,-0.03255 -0.631486,-0.07227 -0.941406,-0.119141 -0.30992,-0.04683 -0.616512,-0.102179 -0.917969,-0.165975 -0.301457,-0.0638 -0.598935,-0.135424 -0.890625,-0.21875 -0.29169,-0.08333 -0.576802,-0.177744 -0.857422,-0.283203 -0.280619,-0.105459 -0.555972,-0.223319 -0.824218,-0.353515 -0.134123,-0.0651 -0.2657,-0.133308 -0.396485,-0.205078 -0.130785,-0.07177 -0.261387,-0.145841 -0.388672,-0.22461 -0.127284,-0.07877 -0.251379,-0.161955 -0.375,-0.248047 C 21.366613,29.933439 21.244794,29.843741 21.125,29.75 21.005206,29.656259 20.887289,29.558747 20.771484,29.457031 20.655679,29.355316 20.54134,29.248688 20.429688,29.138672 20.318035,29.028656 20.2089,28.915516 20.101562,28.796875 19.994225,28.678234 19.888016,28.555326 19.785156,28.427734 19.682297,28.300142 19.582593,28.168119 19.484375,28.03125 19.386157,27.894381 19.29068,27.751939 19.197266,27.605469 19.103851,27.458998 19.012276,27.308742 18.923828,27.152344 18.835381,26.995946 18.749333,26.83462 18.666016,26.667969 18.582698,26.501318 18.502101,26.329087 18.423828,26.152344 18.345555,25.975601 18.268866,25.793606 18.195312,25.607422 18.048205,25.235054 17.911435,24.843726 17.78125,24.4375 17.651065,24.031274 17.527975,23.610657 17.412109,23.175781 17.296244,22.740905 17.188135,22.292302 17.083984,21.833984 16.979833,21.375667 16.880196,20.906238 16.785156,20.429688 16.690116,19.953137 16.598299,19.470044 16.509766,18.980469 16.332698,18.001319 16.166666,16.999999 16,16 16.666666,12.000004 17.334387,8.0008985 18.667969,5.3339844 21.335133,1.5620883e-4 26.666672,0 32,0 Z" />

</svg>
