<!-- Created by QNetITQ for the WaveFox project -->

<svg xmlns="http://www.w3.org/2000/svg" width="32" height="32" viewBox="0 0 32 32" preserveAspectRatio="none">

    <path fill="context-fill" d="M 0 0 L 0 32 C 0.66666601 32 1.3326566 32.00065 1.9941406 31.990234 C 2.3248827 31.985027 2.6549303 31.976561 2.9824219 31.964844 C 3.3099135 31.953126 3.6360465 31.936847 3.9589844 31.916016 C 4.2819222 31.895184 4.600888 31.87044 4.9179688 31.837891 C 5.2350495 31.805342 5.5494546 31.765621 5.859375 31.71875 C 6.1692954 31.671879 6.475887 31.61653 6.7773438 31.552734 C 7.0788005 31.488938 7.3762789 31.41731 7.6679688 31.333984 C 7.9596586 31.250659 8.2447711 31.15624 8.5253906 31.050781 C 8.8060102 30.945322 9.0813634 30.827462 9.3496094 30.697266 C 9.4837324 30.632168 9.6153085 30.563958 9.7460938 30.492188 C 9.876879 30.420417 10.007481 30.346347 10.134766 30.267578 C 10.26205 30.18881 10.386145 30.105623 10.509766 30.019531 C 10.633387 29.933439 10.755206 29.843741 10.875 29.75 C 10.994794 29.656259 11.112711 29.558747 11.228516 29.457031 C 11.344321 29.355316 11.45866 29.248688 11.570312 29.138672 C 11.681965 29.028656 11.7911 28.915516 11.898438 28.796875 C 12.005775 28.678234 12.111984 28.555326 12.214844 28.427734 C 12.317703 28.300142 12.417407 28.168119 12.515625 28.03125 C 12.613843 27.894381 12.70932 27.751939 12.802734 27.605469 C 12.896149 27.458998 12.987724 27.308742 13.076172 27.152344 C 13.164619 26.995946 13.250667 26.83462 13.333984 26.667969 C 13.417302 26.501318 13.497899 26.329087 13.576172 26.152344 C 13.654445 25.975601 13.731134 25.793606 13.804688 25.607422 C 13.951795 25.235054 14.088565 24.843726 14.21875 24.4375 C 14.348935 24.031274 14.472025 23.610657 14.587891 23.175781 C 14.703756 22.740905 14.811865 22.292302 14.916016 21.833984 C 15.020167 21.375667 15.119804 20.906238 15.214844 20.429688 C 15.309884 19.953137 15.401701 19.470044 15.490234 18.980469 C 15.667302 18.001319 15.833334 16.999999 16 16 C 15.333334 12.000004 14.665613 8.0008985 13.332031 5.3339844 C 10.664867 0.00015620883 5.333328 0 0 0 z" />

</svg>
