<!-- Created by QNetITQ for the WaveFox project -->

<svg xmlns="http://www.w3.org/2000/svg" width="32" height="32" viewBox="0 0 32 32" preserveAspectRatio="none">

    <path fill="context-fill" d="m 32,0 v 32 c -0.666666,0 -1.333248,-6.51e-4 -2,-0.02148 -0.333376,-0.01042 -0.666617,-0.02539 -1,-0.04883 -0.333383,-0.02344 -0.66662,-0.05404 -1,-0.0957 -0.33338,-0.04167 -0.666633,-0.09505 -1,-0.160156 -0.333367,-0.06511 -0.666655,-0.142584 -1,-0.236334 -0.166672,-0.04687 -0.333335,-0.09733 -0.5,-0.152344 -0.166665,-0.05501 -0.333344,-0.113932 -0.5,-0.177734 -0.166656,-0.0638 -0.333354,-0.131836 -0.5,-0.205078 -0.166646,-0.07324 -0.333365,-0.152995 -0.5,-0.236328 -0.166635,-0.08333 -0.333687,-0.171876 -0.5,-0.265625 -0.166314,-0.09375 -0.332706,-0.192709 -0.498047,-0.296875 -0.16534,-0.104166 -0.330424,-0.213543 -0.494141,-0.328125 -0.163716,-0.114583 -0.324887,-0.234377 -0.486328,-0.359375 -0.16144,-0.124998 -0.321955,-0.255212 -0.480468,-0.390625 C 21.382502,28.889977 21.225248,28.749344 21.070312,28.603516 20.915377,28.457687 20.762034,28.306634 20.611328,28.150391 20.460622,27.994147 20.311841,27.832674 20.166016,27.666016 20.02019,27.499357 19.876621,27.327464 19.736328,27.150391 19.596035,26.973317 19.460282,26.791003 19.326172,26.603516 19.192062,26.416028 19.060869,26.223292 18.933594,26.025391 18.806318,25.827489 18.68229,25.624331 18.5625,25.416016 18.44271,25.2077 18.326496,24.99412 18.214844,24.775391 c -0.111653,-0.21873 -0.219402,-0.44078 -0.322266,-0.669922 -0.102864,-0.229143 -0.201497,-0.46357 -0.294922,-0.703125 -0.09342,-0.239556 -0.180338,-0.484407 -0.263672,-0.734375 -0.08333,-0.249969 -0.16276,-0.505887 -0.236328,-0.765625 -0.07357,-0.259738 -0.141927,-0.524764 -0.207031,-0.792969 -0.0651,-0.268205 -0.125651,-0.539082 -0.183594,-0.814453 -0.05794,-0.275371 -0.113932,-0.554704 -0.166015,-0.835938 -0.104167,-0.562468 -0.196615,-1.134781 -0.285157,-1.71289 C 16.167318,17.167985 16.083333,16.583333 16,16 c 0.333333,-2.333331 0.667319,-4.665768 1.333984,-6.6660156 1.333333,-4.000496 3.998852,-6.666668 6.666016,-8 C 26.667164,6.5230833e-4 29.333336,0 32,0 Z" />

</svg>
