<svg width="16" height="32" viewBox="0 0 16 32" xmlns="http://www.w3.org/2000/svg"><path fill="context-fill" d="m 4,0 a 4,4 0 0 1 0.568359,0.04101562 4,4 0 0 1 0.558594,0.12109376 4,4 0 0 1 0.535156,0.19921874 4,4 0 0 1 0.5,0.2734375 4,4 0 0 1 0.457032,0.34179688 4,4 0 0 1 0.404297,0.4042969 4,4 0 0 1 0.341796,0.4570312 4,4 0 0 1 0.273438,0.5 A 4,4 0 0 1 7.837891,2.8730469 4,4 0 0 1 7.958984,3.4316406 4,4 0 0 1 8,4 v 24 a 4,4 0 0 0 0.04102,0.568359 4,4 0 0 0 0.121093,0.558594 4,4 0 0 0 0.199219,0.535156 4,4 0 0 0 0.273438,0.5 4,4 0 0 0 0.341797,0.457032 4,4 0 0 0 0.404296,0.404297 4,4 0 0 0 0.457032,0.341796 4,4 0 0 0 0.5,0.273438 4,4 0 0 0 0.535156,0.199219 4,4 0 0 0 0.558594,0.121093 A 4,4 0 0 0 12,32 H 8 4 0 V 0 Z"/><path fill="none" stroke="context-stroke" stroke-width="2" d="M -1.8246402e-5,1 H 3.9997248 c 0.190172,1.338e-4 0.380093,0.012979 0.568317,0.038455 0.188833,0.025308 0.375494,0.063243 0.558554,0.1135249 0.18289,0.050225 0.361719,0.1126383 0.535117,0.1867669 0.172943,0.074198 0.3400194,0.1598617 0.4999629,0.2563465 C 6.32195,1.6915665 6.4746722,1.7986507 6.6186729,1.915527 6.7628997,2.0326664 6.898,2.1593324 7.0229399,2.2945538 c 0.1246618,0.1350104 0.2388758,0.2781964 0.3417736,0.4284659 0.1029099,0.1499555 0.1942811,0.3066028 0.2734177,0.4687484 0.079064,0.162573 0.1456358,0.3302358 0.1992033,0.5017079 0.053623,0.1716293 0.094094,0.3466359 0.1210847,0.5236794 0.027171,0.1764722 0.040872,0.3545354 0.041022,0.5328356 V 27.24992 c 1.41e-4,0.178298 0.013851,0.356362 0.041002,0.532832 0.026991,0.177046 0.067453,0.352053 0.1210956,0.523682 0.053563,0.17147 0.1201497,0.339134 0.1992173,0.501706 0.079134,0.162145 0.170508,0.318792 0.2734168,0.46875 0.1028988,0.150268 0.2171132,0.293455 0.341773,0.428463 0.1249388,0.135224 0.2600421,0.261892 0.4042689,0.379029 0.1439997,0.116878 0.2967209,0.22396 0.4569973,0.320435 0.1599426,0.09653 0.327019,0.182151 0.499963,0.256349 0.173399,0.0742 0.352227,0.136541 0.535118,0.186768 0.183059,0.0502 0.36972,0.08815 0.558554,0.113523 0.188222,0.02547 0.378143,0.03832 0.568318,0.03847 L 15.999954,31"/></svg>
