<svg width="16" height="32" viewBox="0 0 16 32" xmlns="http://www.w3.org/2000/svg"><path fill="context-fill" d="M 12 0 A 4 4 0 0 0 11.431641 0.041015625 A 4 4 0 0 0 10.873047 0.16210938 A 4 4 0 0 0 10.337891 0.36132812 A 4 4 0 0 0 9.8378906 0.63476562 A 4 4 0 0 0 9.3808594 0.9765625 A 4 4 0 0 0 8.9765625 1.3808594 A 4 4 0 0 0 8.6347656 1.8378906 A 4 4 0 0 0 8.3613281 2.3378906 A 4 4 0 0 0 8.1621094 2.8730469 A 4 4 0 0 0 8.0410156 3.4316406 A 4 4 0 0 0 8 4 L 8 28 A 4 4 0 0 1 7.9589844 28.568359 A 4 4 0 0 1 7.8378906 29.126953 A 4 4 0 0 1 7.6386719 29.662109 A 4 4 0 0 1 7.3652344 30.162109 A 4 4 0 0 1 7.0234375 30.619141 A 4 4 0 0 1 6.6191406 31.023438 A 4 4 0 0 1 6.1621094 31.365234 A 4 4 0 0 1 5.6621094 31.638672 A 4 4 0 0 1 5.1269531 31.837891 A 4 4 0 0 1 4.5683594 31.958984 A 4 4 0 0 1 4 32 L 8 32 L 12 32 L 16 32 L 16 0 L 12 0 z"/><path fill="none" stroke="context-stroke" stroke-width="2" d="m 15.999972,1 h -3.999743 c -0.190172,1.338e-4 -0.380093,0.012979 -0.568317,0.038455 -0.188833,0.025308 -0.375494,0.063243 -0.558554,0.1135249 -0.18289,0.050225 -0.361719,0.1126383 -0.535117,0.1867669 C 10.165298,1.4129448 9.9982216,1.4986085 9.8382781,1.5950933 9.6780038,1.6915665 9.5252816,1.7986507 9.3812809,1.915527 9.2370541,2.0326664 9.1019538,2.1593324 8.9770139,2.2945538 8.8523521,2.4295642 8.7381381,2.5727502 8.6352403,2.7230197 8.5323304,2.8729752 8.4409592,3.0296225 8.3618226,3.1917681 8.2827589,3.3543411 8.2161868,3.5220039 8.1626193,3.693476 8.1089967,3.8651053 8.0685249,4.0401119 8.0415346,4.2171554 8.0143633,4.3936276 8.0006626,4.5716908 8.0005127,4.749991 V 27.24992 c -1.41e-4,0.178298 -0.013851,0.356362 -0.041002,0.532832 -0.026991,0.177046 -0.067453,0.352053 -0.1210956,0.523682 -0.053563,0.17147 -0.1201497,0.339134 -0.1992173,0.501706 -0.079134,0.162145 -0.170508,0.318792 -0.2734168,0.46875 -0.1028988,0.150268 -0.2171132,0.293455 -0.341773,0.428463 -0.1249388,0.135224 -0.2600421,0.261892 -0.4042689,0.379029 -0.1439997,0.116878 -0.2967209,0.22396 -0.4569973,0.320435 -0.1599426,0.09653 -0.3270193,0.182151 -0.4999635,0.256349 -0.173399,0.0742 -0.3522264,0.136541 -0.535118,0.186768 -0.1830585,0.0502 -0.3697193,0.08815 -0.5585531,0.113523 -0.1882228,0.02547 -0.3781436,0.03832 -0.5683185,0.03847 L 0,31"/></svg>
