<svg width="16" height="16" viewBox="0 0 16 16" xmlns="http://www.w3.org/2000/svg"><path fill="#000000" d="M 6.2695312,16 H 0 V 0 H 16 V 6.2695312 A 8,-8 0 0 0 15.138672,6.0820312 8,-8 0 0 0 14,6 8,-8 0 0 0 12.861328,6.0820312 8,-8 0 0 0 11.746094,6.3242188 8,-8 0 0 0 10.675781,6.7226562 8,-8 0 0 0 9.6757812,7.2695312 8,-8 0 0 0 8.7617188,7.953125 8,-8 0 0 0 7.953125,8.7617188 8,-8 0 0 0 7.2695312,9.6757812 8,-8 0 0 0 6.7226562,10.675781 8,-8 0 0 0 6.3242188,11.746094 8,-8 0 0 0 6.0820312,12.861328 8,-8 0 0 0 6,14 8,-8 0 0 0 6.0820312,15.138672 8,-8 0 0 0 6.2695312,16 Z"/></svg>