<svg width="16" height="16" viewBox="0 0 16 16" xmlns="http://www.w3.org/2000/svg"><path fill="#000000" d="M 0 0 L 0 16 L 6.2695312 16 A 8 8 0 0 1 6.0820312 15.138672 A 8 8 0 0 1 6 14 A 8 8 0 0 1 6.0820312 12.861328 A 8 8 0 0 1 6.3242188 11.746094 A 8 8 0 0 1 6.7226562 10.675781 A 8 8 0 0 1 7.2695312 9.6757812 A 8 8 0 0 1 7.953125 8.7617188 A 8 8 0 0 1 8.7148438 8 A 8 8 0 0 1 7.953125 7.2382812 A 8 8 0 0 1 7.2695312 6.3242188 A 8 8 0 0 1 6.7226562 5.3242188 A 8 8 0 0 1 6.3242188 4.2539062 A 8 8 0 0 1 6.0820312 3.1386719 A 8 8 0 0 1 6 2 A 8 8 0 0 1 6.0820312 0.86132812 A 8 8 0 0 1 6.2695312 0 L 0 0 z"/></svg>