<!-- Created by QNetITQ for the WaveFox project -->

<svg xmlns="http://www.w3.org/2000/svg" width="32" height="32" viewBox="0 0 32 32" preserveAspectRatio="none">

    <path fill="context-fill" d="M 24 0 C 23.8615 0 23.724619 0.0028794083 23.587891 0.009765625 C 23.451161 0.016651842 23.314481 0.027408231 23.179688 0.041015625 C 23.044893 0.054623019 22.911992 0.071633341 22.779297 0.091796875 C 22.646602 0.11196041 22.513242 0.13555473 22.382812 0.16210938 C 22.252384 0.18866401 22.124093 0.21917244 21.996094 0.25195312 C 21.868094 0.28473382 21.740639 0.32053328 21.615234 0.359375 C 21.489831 0.39821672 21.366785 0.43963729 21.244141 0.484375 C 21.121497 0.52911271 21.000578 0.57648449 20.880859 0.62695312 C 20.761141 0.67742177 20.642019 0.73107481 20.525391 0.78710938 C 20.408762 0.84314393 20.293059 0.90145521 20.179688 0.96289062 C 20.066315 1.024326 19.955656 1.0876256 19.845703 1.1542969 C 19.735751 1.2209681 19.627851 1.2915392 19.521484 1.3632812 C 19.415117 1.4350234 19.309648 1.5092897 19.207031 1.5859375 C 19.104415 1.6625853 19.004951 1.7408771 18.90625 1.8222656 C 18.807549 1.9036541 18.709855 1.9882545 18.615234 2.0742188 C 18.520614 2.1601829 18.428266 2.2475158 18.337891 2.3378906 C 18.247516 2.4282654 18.160183 2.520614 18.074219 2.6152344 C 17.988254 2.7098548 17.903654 2.807549 17.822266 2.90625 C 17.740877 3.004951 17.662584 3.1044149 17.585938 3.2070312 C 17.50929 3.3096477 17.435023 3.4151174 17.363281 3.5214844 C 17.291539 3.6278514 17.220968 3.7357507 17.154297 3.8457031 C 17.087626 3.9556556 17.024326 4.0663147 16.962891 4.1796875 C 16.901455 4.2930603 16.843144 4.4087624 16.787109 4.5253906 C 16.731075 4.6420188 16.677422 4.7611408 16.626953 4.8808594 C 16.576484 5.0005779 16.529113 5.1214968 16.484375 5.2441406 C 16.439637 5.3667844 16.398217 5.4898303 16.359375 5.6152344 C 16.320533 5.7406383 16.284734 5.8680945 16.251953 5.9960938 C 16.219172 6.1240929 16.188664 6.252383 16.162109 6.3828125 C 16.135555 6.513242 16.11196 6.6466023 16.091797 6.7792969 C 16.071633 6.9119914 16.054623 7.0448928 16.041016 7.1796875 C 16.027408 7.3144822 16.016652 7.451161 16.009766 7.5878906 C 16.002879 7.7246204 16 7.8615002 16 8 L 16 24 C 16 24.1385 16.002879 24.275381 16.009766 24.412109 C 16.016652 24.548839 16.027408 24.685519 16.041016 24.820312 C 16.054623 24.955107 16.071633 25.088008 16.091797 25.220703 C 16.11196 25.353398 16.135555 25.486758 16.162109 25.617188 C 16.188664 25.747616 16.219172 25.875907 16.251953 26.003906 C 16.284734 26.131906 16.320533 26.259361 16.359375 26.384766 C 16.398217 26.510169 16.439637 26.633215 16.484375 26.755859 C 16.529113 26.878503 16.576484 26.999422 16.626953 27.119141 C 16.677422 27.238859 16.731075 27.357981 16.787109 27.474609 C 16.843144 27.591238 16.901455 27.706941 16.962891 27.820312 C 17.024326 27.933685 17.087626 28.044344 17.154297 28.154297 C 17.220968 28.264249 17.291539 28.372149 17.363281 28.478516 C 17.435023 28.584883 17.50929 28.690352 17.585938 28.792969 C 17.662584 28.895585 17.740877 28.995049 17.822266 29.09375 C 17.903654 29.192451 17.988254 29.290145 18.074219 29.384766 C 18.160183 29.479386 18.247516 29.571734 18.337891 29.662109 C 18.428266 29.752484 18.520614 29.839817 18.615234 29.925781 C 18.709855 30.011746 18.807549 30.096346 18.90625 30.177734 C 19.004951 30.259123 19.104415 30.337416 19.207031 30.414062 C 19.309648 30.49071 19.415117 30.564977 19.521484 30.636719 C 19.627851 30.708461 19.735751 30.779032 19.845703 30.845703 C 19.955656 30.912374 20.066315 30.975674 20.179688 31.037109 C 20.293059 31.098545 20.408762 31.156856 20.525391 31.212891 C 20.642019 31.268925 20.761141 31.322578 20.880859 31.373047 C 21.000578 31.423516 21.121497 31.470887 21.244141 31.515625 C 21.366785 31.560363 21.489831 31.601783 21.615234 31.640625 C 21.740639 31.679467 21.868094 31.715266 21.996094 31.748047 C 22.124093 31.780828 22.252384 31.811336 22.382812 31.837891 C 22.513242 31.864445 22.646602 31.88804 22.779297 31.908203 C 22.911992 31.928367 23.044893 31.945377 23.179688 31.958984 C 23.314481 31.972592 23.451161 31.983348 23.587891 31.990234 C 23.724619 31.997121 23.8615 32 24 32 L 32 32 L 32 24 L 32 8 L 32 0 L 24 0 z" />

</svg>
