<!-- Created by QNetITQ for the WaveFox project -->

<svg xmlns="http://www.w3.org/2000/svg" width="36" height="36" viewBox="0 0 1 1" preserveAspectRatio="none">

    <defs>
        <path id="Path" d="m 1.0000281,0 v 0.12109375 a 0.24999276,0.125 0 0 1 0,0.003906 V 1 H 0.75002806 A 0.24999276,0.125 0 0 1 0.71487176,0.998047 0.24999276,0.125 0 0 1 0.67971546,0.994141 0.24999276,0.125 0 0 1 0.64651236,0.988282 0.24999276,0.125 0 0 1 0.61526236,0.980469 0.24999276,0.125 0 0 1 0.58596556,0.96875 0.24999276,0.125 0 0 1 0.56057494,0.95703125 0.24999276,0.125 0 0 1 0.53909056,0.94335938 0.24999276,0.125 0 0 1 0.52346556,0.92773438 0.24999276,0.125 0 0 1 0.50979368,0.91015625 0.24999276,0.125 0 0 1 0.50198118,0.89257812 0.24999276,0.125 0 0 1 0.50002806,0.875 v -0.75 a 0.24999276,0.125 0 0 1 0.001953,-0.0175781 0.24999276,0.125 0 0 1 0.007813,-0.01757813 0.24999276,0.125 0 0 1 0.0136719,-0.01757813 0.24999276,0.125 0 0 1 0.015625,-0.015625 0.24999276,0.125 0 0 1 0.021484,-0.01367189 A 0.24999276,0.125 0 0 1 0.58596556,0.03125 0.24999276,0.125 0 0 1 0.61526244,0.01953125 0.24999276,0.125 0 0 1 0.64651244,0.01171875 0.24999276,0.125 0 0 1 0.67971556,0.00585938 0.24999276,0.125 0 0 1 0.71487181,0.00195313 0.24999276,0.125 0 0 1 0.75002806,0 Z"/>
    </defs>

    <use href="#Path" fill="context-fill"/>

    <clipPath id="ClipPath" clipPathUnits="objectBoundingBox">
        <use href="#Path"/>
    </clipPath>

    <mask id="Mask" maskContentUnits="objectBoundingBox">
        <use href="#Path" fill="#ffffff"/>
    </mask>

</svg>
