<!-- Created by QNetITQ for the WaveFox project -->

<svg xmlns="http://www.w3.org/2000/svg" width="36" height="36" viewBox="0 0 1 1" preserveAspectRatio="none">

    <defs>
        <path id="Path" d="m 0.25001449,0 a 0.24999276,0.125 0 0 1 0.035521,0.00128174 0.24999276,0.125 0 0 1 0.034911,0.00378418 0.24999276,0.125 0 0 1 0.033447,0.00622558 0.24999276,0.125 0 0 1 0.0312491,0.0085449 0.24999276,0.125 0 0 1 0.0285632,0.01068115 0.24999276,0.125 0 0 1 0.0252673,0.01263428 0.24999276,0.125 0 0 1 0.0213614,0.01428222 0.24999276,0.125 0 0 1 0.0170795,0.015625 0.24999276,0.125 0 0 1 0.0124596,0.01672364 0.24999276,0.125 0 0 1 0.00756,0.01745605 0.24999276,0.125 0 0 1 0.002574,0.0177613 v 0.75 a 0.24999276,0.125 0 0 0 0.00256,0.0177612 0.24999276,0.125 0 0 0 0.00756,0.0174561 0.24999276,0.125 0 0 0 0.0124596,0.0167236 0.24999276,0.125 0 0 0 0.0170795,0.015625 0.24999276,0.125 0 0 0 0.0213614,0.0142822 0.24999276,0.125 0 0 0 0.0252673,0.0126343 0.24999276,0.125 0 0 0 0.0285632,0.0106811 0.24999276,0.125 0 0 0 0.0312491,0.008545 0.24999276,0.125 0 0 0 0.0334467,0.006226 0.24999276,0.125 0 0 0 0.034911,0.003784 A 0.24999276,0.125 0 0 0 0.75,1 H 0.50000724 2.1727547e-5 V 0.125 a 0.24999276,0.125 0 0 1 0,-0.003296 V 0.12164307 0 Z"/>
    </defs>

    <use href="#Path" fill="context-fill"/>

    <clipPath id="ClipPath" clipPathUnits="objectBoundingBox">
        <use href="#Path"/>
    </clipPath>

    <mask id="Mask" maskContentUnits="objectBoundingBox">
        <use href="#Path" fill="#ffffff"/>
    </mask>

</svg>
