<!-- Created by QNetITQ for the WaveFox project -->

<svg xmlns="http://www.w3.org/2000/svg" width="36" height="36" viewBox="0 0 1 1" preserveAspectRatio="none">

    <defs>
        <path id="Path" d="M 0 0 L 0 0.12109375 A 0.24999276 0.125 0 0 0 0 0.125 L 0 1 L 0.25 1 A 0.24999276 0.125 0 0 0 0.28515625 0.99804688 A 0.24999276 0.125 0 0 0 0.3203125 0.99414062 A 0.24999276 0.125 0 0 0 0.35351562 0.98828125 A 0.24999276 0.125 0 0 0 0.38476562 0.98046875 A 0.24999276 0.125 0 0 0 0.4140625 0.96875 A 0.24999276 0.125 0 0 0 0.43945312 0.95703125 A 0.24999276 0.125 0 0 0 0.4609375 0.94335938 A 0.24999276 0.125 0 0 0 0.4765625 0.92773438 A 0.24999276 0.125 0 0 0 0.49023438 0.91015625 A 0.24999276 0.125 0 0 0 0.49804688 0.89257812 A 0.24999276 0.125 0 0 0 0.5 0.875 L 0.5 0.125 A 0.24999276 0.125 0 0 0 0.49804688 0.10742188 A 0.24999276 0.125 0 0 0 0.49023438 0.08984375 A 0.24999276 0.125 0 0 0 0.4765625 0.072265625 A 0.24999276 0.125 0 0 0 0.4609375 0.056640625 A 0.24999276 0.125 0 0 0 0.43945312 0.04296875 A 0.24999276 0.125 0 0 0 0.4140625 0.03125 A 0.24999276 0.125 0 0 0 0.38476562 0.01953125 A 0.24999276 0.125 0 0 0 0.35351562 0.01171875 A 0.24999276 0.125 0 0 0 0.3203125 0.005859375 A 0.24999276 0.125 0 0 0 0.28515625 0.001953125 A 0.24999276 0.125 0 0 0 0.25 0 L 0 0 z"/>
    </defs>

    <use href="#Path" fill="context-fill"/>

    <clipPath id="ClipPath" clipPathUnits="objectBoundingBox">
        <use href="#Path"/>
    </clipPath>

    <mask id="Mask" maskContentUnits="objectBoundingBox">
        <use href="#Path" fill="#ffffff"/>
    </mask>

</svg>
