<!-- Created by QNetITQ for the WaveFox project -->

<svg xmlns="http://www.w3.org/2000/svg" width="32" height="32" viewBox="0 0 32 32" preserveAspectRatio="none">

    <path fill="context-fill" d="m 32,0 v 32 c -0.666666,0 -1.333901,-6.54e-4 -1.990234,-0.02148 -0.328167,-0.01041 -0.652948,-0.02539 -0.97461,-0.04883 -0.321662,-0.02343 -0.640581,-0.05404 -0.953125,-0.0957 -0.312543,-0.04166 -0.619111,-0.09506 -0.919922,-0.160156 -0.150405,-0.03255 -0.298331,-0.06804 -0.445312,-0.107422 -0.146982,-0.03939 -0.292316,-0.08204 -0.435547,-0.128912 -0.143231,-0.04687 -0.284674,-0.09734 -0.423828,-0.152344 -0.139154,-0.055 -0.277359,-0.113942 -0.41211,-0.177734 -0.13475,-0.06379 -0.266464,-0.131847 -0.396484,-0.205078 -0.13002,-0.07323 -0.25785,-0.153008 -0.382812,-0.236328 -0.124963,-0.08332 -0.247104,-0.171886 -0.367188,-0.265625 -0.120084,-0.09374 -0.237659,-0.192718 -0.353516,-0.296875 -0.115856,-0.104157 -0.229517,-0.21355 -0.341796,-0.328125 -0.11228,-0.114575 -0.222678,-0.234383 -0.332032,-0.359375 -0.109353,-0.124993 -0.21714,-0.253262 -0.324218,-0.388672 C 22.840187,28.891933 22.732407,28.751297 22.626953,28.605469 22.416045,28.313812 22.208314,28.001295 22,27.667969 c -0.208314,-0.333327 -0.416026,-0.687504 -0.626953,-1.0625 -0.210927,-0.374996 -0.425786,-0.770836 -0.644531,-1.1875 -0.437491,-0.83333 -0.894532,-1.750001 -1.394532,-2.75 L 16,16 19.333984,9.3339844 c 1.999998,-3.9999959 3.333387,-6.666468 5.333985,-8 C 26.668567,4.5240853e-4 29.333336,0 32,0 Z" />

</svg>
