<!-- Created by QNetITQ for the WaveFox project -->

<svg xmlns="http://www.w3.org/2000/svg" width="32" height="32" viewBox="0 0 32 32" preserveAspectRatio="none">

    <path fill="context-fill" d="M 0 0 L 0 32 C 0.666666 32 1.3339007 31.999346 1.9902344 31.978516 C 2.3184012 31.968101 2.6431815 31.953121 2.9648438 31.929688 C 3.286506 31.906254 3.6054253 31.875645 3.9179688 31.833984 C 4.2305122 31.792324 4.5370804 31.738922 4.8378906 31.673828 C 4.9882957 31.641281 5.1362215 31.605788 5.2832031 31.566406 C 5.4301848 31.527024 5.5755186 31.484368 5.71875 31.4375 C 5.8619814 31.390632 6.0034238 31.340161 6.1425781 31.285156 C 6.2817324 31.230152 6.419937 31.171214 6.5546875 31.107422 C 6.689438 31.043629 6.8211521 30.975575 6.9511719 30.902344 C 7.0811917 30.829113 7.209022 30.749336 7.3339844 30.666016 C 7.4589468 30.582695 7.5810878 30.49413 7.7011719 30.400391 C 7.821256 30.306652 7.9388309 30.207673 8.0546875 30.103516 C 8.1705441 29.999359 8.2842045 29.889966 8.3964844 29.775391 C 8.5087642 29.660816 8.6191618 29.541008 8.7285156 29.416016 C 8.8378694 29.291023 8.9456559 29.162754 9.0527344 29.027344 C 9.1598129 28.891933 9.2675929 28.751297 9.3730469 28.605469 C 9.5839549 28.313812 9.7916856 28.001295 10 27.667969 C 10.208314 27.334642 10.416026 26.980465 10.626953 26.605469 C 10.83788 26.230473 11.052739 25.834633 11.271484 25.417969 C 11.708975 24.584639 12.166016 23.667968 12.666016 22.667969 L 16 16 L 12.666016 9.3339844 C 10.666018 5.3339885 9.3326292 2.6675164 7.3320312 1.3339844 C 5.3314333 0.00045240853 2.666664 0 0 0 z" />

</svg>
