<!-- Created by QNetITQ for the WaveFox project -->

<svg xmlns="http://www.w3.org/2000/svg" width="32" height="32" viewBox="0 0 32 32" preserveAspectRatio="none">

    <path fill="context-fill" d="m 8,0 c 0.1385,0 0.275381,0.00287941 0.412109,0.00976563 0.13673,0.00688621 0.27341,0.0176426 0.408203,0.03124999 0.134795,0.0136074 0.267696,0.03061772 0.400391,0.05078125 0.132695,0.02016354 0.266055,0.04375786 0.396485,0.07031251 0.130428,0.0265546 0.258719,0.0570631 0.386718,0.0898437 0.128,0.0327807 0.255455,0.0685802 0.38086,0.10742188 0.125403,0.0388417 0.248449,0.0802623 0.371093,0.125 0.122644,0.0447377 0.243563,0.0921095 0.363282,0.14257812 0.119718,0.0504687 0.23884,0.10412169 0.355468,0.16015626 0.116629,0.0560346 0.232332,0.11434583 0.345703,0.17578124 0.113373,0.0614354 0.224032,0.12473502 0.333985,0.19140632 0.109952,0.066671 0.217852,0.1372423 0.324219,0.2089843 0.106367,0.071742 0.211836,0.1460085 0.314453,0.2226563 0.102616,0.076648 0.20208,0.1549396 0.300781,0.2363281 0.0987,0.081389 0.196395,0.1659889 0.291016,0.2519532 0.09462,0.085964 0.186968,0.173297 0.277343,0.2636718 0.09037,0.090375 0.177708,0.1827234 0.263672,0.2773438 0.08596,0.09462 0.170565,0.1923146 0.251953,0.2910156 0.08139,0.098701 0.159682,0.1981649 0.236328,0.3007812 0.07665,0.1026165 0.150915,0.2080862 0.222657,0.3144532 0.07174,0.106367 0.142313,0.2142663 0.208984,0.3242187 0.06667,0.1099525 0.129971,0.2206116 0.191406,0.3339844 0.06144,0.1133728 0.119747,0.2290749 0.175782,0.3457031 0.05603,0.1166282 0.109687,0.2357502 0.160156,0.3554688 0.05047,0.1197185 0.09784,0.2406374 0.142578,0.3632812 0.04474,0.1226438 0.08616,0.2456897 0.125,0.3710938 0.03884,0.1254039 0.07464,0.2528601 0.107422,0.3808594 0.03278,0.1279991 0.06329,0.2562892 0.08984,0.3867187 0.02655,0.1304295 0.05015,0.2637898 0.07031,0.3964844 0.02016,0.1326945 0.03717,0.2655959 0.05078,0.4003906 0.01361,0.1347947 0.02436,0.2714735 0.03125,0.4082031 C 15.997121,7.7246204 16,7.8615002 16,8 v 16 c 0,0.1385 -0.0029,0.275381 -0.0098,0.412109 -0.0069,0.13673 -0.01764,0.27341 -0.03125,0.408203 -0.01361,0.134795 -0.03062,0.267696 -0.05078,0.400391 -0.02016,0.132695 -0.04376,0.266055 -0.07031,0.396485 -0.02655,0.130428 -0.05706,0.258719 -0.08984,0.386718 -0.03278,0.128 -0.06858,0.255455 -0.107422,0.38086 -0.03884,0.125403 -0.08026,0.248449 -0.125,0.371093 -0.04474,0.122644 -0.09211,0.243563 -0.142578,0.363282 -0.05047,0.119718 -0.104122,0.23884 -0.160156,0.355468 -0.05603,0.116629 -0.114346,0.232332 -0.175782,0.345703 -0.06143,0.113373 -0.124735,0.224032 -0.191406,0.333985 -0.06667,0.109952 -0.137242,0.217852 -0.208984,0.324219 -0.07174,0.106367 -0.146009,0.211836 -0.222657,0.314453 -0.07665,0.102616 -0.154939,0.20208 -0.236328,0.300781 -0.08139,0.0987 -0.165988,0.196395 -0.251953,0.291016 -0.08596,0.09462 -0.173297,0.186968 -0.263672,0.277343 -0.09038,0.09037 -0.182723,0.177708 -0.277343,0.263672 -0.09462,0.08596 -0.192315,0.170565 -0.291016,0.251953 -0.0987,0.08139 -0.198165,0.159682 -0.300781,0.236328 -0.102617,0.07665 -0.208086,0.150915 -0.314453,0.222657 -0.106367,0.07174 -0.214267,0.142313 -0.324219,0.208984 -0.109953,0.06667 -0.220612,0.129971 -0.333985,0.191406 -0.113371,0.06144 -0.229074,0.119747 -0.345703,0.175782 -0.116628,0.05603 -0.23575,0.109687 -0.355468,0.160156 -0.119719,0.05047 -0.240638,0.09784 -0.363282,0.142578 -0.122644,0.04474 -0.24569,0.08616 -0.371093,0.125 -0.125405,0.03884 -0.25286,0.07464 -0.38086,0.107422 -0.127999,0.03278 -0.25629,0.06329 -0.386718,0.08984 -0.13043,0.02655 -0.26379,0.05015 -0.396485,0.07031 -0.132695,0.02016 -0.265596,0.03717 -0.400391,0.05078 -0.134793,0.01361 -0.271473,0.02436 -0.408203,0.03125 C 8.275381,31.997121 8.1385,32 8,32 H 0 V 24 8 0 Z" />

</svg>
