<!-- Created by QNetITQ for the WaveFox project -->

<svg xmlns="http://www.w3.org/2000/svg" width="32" height="32" viewBox="0 0 32 32" preserveAspectRatio="none">

    <path fill="context-fill" d="M 32,0 V 0.6875 23.283203 32 H 28 A 12,12 0 0 1 26.292969,31.876953 12,12 0 0 1 24.619141,31.513672 12,12 0 0 1 23.015625,30.916016 12,12 0 0 1 21.511719,30.095703 12,12 0 0 1 20.142578,29.068359 12,12 0 0 1 18.931641,27.857422 12,12 0 0 1 17.904297,26.488281 12,12 0 0 1 17.083984,24.984375 12,12 0 0 1 16.486328,23.380859 12,12 0 0 1 16.123047,21.707031 12,12 0 0 1 16,20 V 12 A 12,12 0 0 1 16.123047,10.292969 12,12 0 0 1 16.486328,8.6191406 12,12 0 0 1 17.083984,7.015625 12,12 0 0 1 17.904297,5.5117188 12,12 0 0 1 18.931641,4.1425781 12,12 0 0 1 20.142578,2.9316406 12,12 0 0 1 21.511719,1.9042969 12,12 0 0 1 23.015625,1.0839844 12,12 0 0 1 24.619141,0.48632812 12,12 0 0 1 26.292969,0.12304688 12,12 0 0 1 28,0 Z" />

</svg>
