<!-- Created by QNetITQ for the WaveFox project -->

<svg xmlns="http://www.w3.org/2000/svg" width="32" height="32" viewBox="0 0 32 32" preserveAspectRatio="none">

    <path fill="context-fill" d="M 16 20 L 16 32 L 32 32 L 32 23.283203 L 32 0.6875 L 32 0 L 28 0 A 12 12 0 0 0 26.292969 0.12304688 A 12 12 0 0 0 24.619141 0.48632812 A 12 12 0 0 0 23.015625 1.0839844 A 12 12 0 0 0 21.511719 1.9042969 A 12 12 0 0 0 20.142578 2.9316406 A 12 12 0 0 0 18.931641 4.1425781 A 12 12 0 0 0 17.904297 5.5117188 A 12 12 0 0 0 17.083984 7.015625 A 12 12 0 0 0 16.486328 8.6191406 A 12 12 0 0 0 16.123047 10.292969 A 12 12 0 0 0 16 12 L 16 20 z" />

</svg>
