<!-- Created by QNetITQ for the WaveFox project -->

<svg xmlns="http://www.w3.org/2000/svg" width="32" height="32" viewBox="0 0 32 32" preserveAspectRatio="none">

    <path fill="context-fill" d="M 0 0 L 0 0.6875 L 0 23.283203 L 0 32 L 4 32 A 12 12 0 0 0 5.7070312 31.876953 A 12 12 0 0 0 7.3808594 31.513672 A 12 12 0 0 0 8.984375 30.916016 A 12 12 0 0 0 10.488281 30.095703 A 12 12 0 0 0 11.857422 29.068359 A 12 12 0 0 0 13.068359 27.857422 A 12 12 0 0 0 14.095703 26.488281 A 12 12 0 0 0 14.916016 24.984375 A 12 12 0 0 0 15.513672 23.380859 A 12 12 0 0 0 15.876953 21.707031 A 12 12 0 0 0 16 20 L 16 12 A 12 12 0 0 0 15.876953 10.292969 A 12 12 0 0 0 15.513672 8.6191406 A 12 12 0 0 0 14.916016 7.015625 A 12 12 0 0 0 14.095703 5.5117188 A 12 12 0 0 0 13.068359 4.1425781 A 12 12 0 0 0 11.857422 2.9316406 A 12 12 0 0 0 10.488281 1.9042969 A 12 12 0 0 0 8.984375 1.0839844 A 12 12 0 0 0 7.3808594 0.48632812 A 12 12 0 0 0 5.7070312 0.12304688 A 12 12 0 0 0 4 0 L 0 0 z" />

</svg>
