<!-- Created by QNetITQ for the WaveFox project -->

<svg xmlns="http://www.w3.org/2000/svg" width="32" height="32" viewBox="0 0 32 32" preserveAspectRatio="none">

    <path fill="context-fill" d="M 28 0 C 27.79225 0 27.585954 0.0052956646 27.380859 0.015625 C 27.175765 0.025954335 26.971723 0.042088888 26.769531 0.0625 C 26.567339 0.082911112 26.367011 0.10842654 26.167969 0.13867188 C 25.968927 0.16891721 25.771816 0.20235551 25.576172 0.2421875 C 25.380528 0.28201949 25.18614 0.32778203 24.994141 0.37695312 C 24.802142 0.42612422 24.611934 0.47884674 24.423828 0.53710938 C 24.235722 0.59537201 24.0492 0.65945588 23.865234 0.7265625 C 23.681268 0.79366912 23.49989 0.86375008 23.320312 0.93945312 C 23.140735 1.0151562 22.964005 1.0956356 22.789062 1.1796875 C 22.61412 1.2637394 22.441544 1.3512061 22.271484 1.4433594 C 22.101425 1.5355126 21.932507 1.6324149 21.767578 1.7324219 C 21.602649 1.8324289 21.440801 1.9373087 21.28125 2.0449219 C 21.121699 2.152535 20.964472 2.2619813 20.810547 2.3769531 C 20.656622 2.4919249 20.505473 2.6122921 20.357422 2.734375 C 20.20937 2.8564579 20.065759 2.9804286 19.923828 3.109375 C 19.781897 3.2383214 19.643375 3.3722501 19.507812 3.5078125 C 19.37225 3.6433749 19.238321 3.7818974 19.109375 3.9238281 C 18.980429 4.0657589 18.856458 4.2093703 18.734375 4.3574219 C 18.612292 4.5054735 18.491925 4.656622 18.376953 4.8105469 C 18.261981 4.9644718 18.152535 5.1216994 18.044922 5.28125 C 17.937309 5.4408006 17.832429 5.6026493 17.732422 5.7675781 C 17.632415 5.9325069 17.535513 6.101425 17.443359 6.2714844 C 17.351206 6.4415438 17.263739 6.61412 17.179688 6.7890625 C 17.095636 6.964005 17.015156 7.1407346 16.939453 7.3203125 C 16.86375 7.4998904 16.793669 7.6812685 16.726562 7.8652344 C 16.659456 8.0492003 16.595372 8.2357219 16.537109 8.4238281 C 16.478847 8.6119344 16.426124 8.8021415 16.376953 8.9941406 C 16.327782 9.1861397 16.282019 9.3805275 16.242188 9.5761719 C 16.202356 9.7718162 16.168917 9.9689267 16.138672 10.167969 C 16.108427 10.367011 16.082911 10.567339 16.0625 10.769531 C 16.042089 10.971723 16.025954 11.175765 16.015625 11.380859 C 16.005296 11.585954 16 11.79225 16 12 L 16 20 C 16 20.20775 16.005296 20.414046 16.015625 20.619141 C 16.025954 20.824235 16.042089 21.028277 16.0625 21.230469 C 16.082911 21.432661 16.108427 21.632989 16.138672 21.832031 C 16.168917 22.031073 16.202356 22.228184 16.242188 22.423828 C 16.282019 22.619472 16.327782 22.81386 16.376953 23.005859 C 16.426124 23.197858 16.478847 23.388066 16.537109 23.576172 C 16.595372 23.764278 16.659456 23.9508 16.726562 24.134766 C 16.793669 24.318732 16.86375 24.50011 16.939453 24.679688 C 17.015156 24.859265 17.095636 25.035995 17.179688 25.210938 C 17.263739 25.38588 17.351206 25.558456 17.443359 25.728516 C 17.535513 25.898575 17.632415 26.067493 17.732422 26.232422 C 17.832429 26.397351 17.937309 26.559199 18.044922 26.71875 C 18.152535 26.878301 18.261981 27.035528 18.376953 27.189453 C 18.491925 27.343378 18.612292 27.494527 18.734375 27.642578 C 18.856458 27.79063 18.980429 27.934241 19.109375 28.076172 C 19.238321 28.218103 19.37225 28.356625 19.507812 28.492188 C 19.643375 28.62775 19.781897 28.761679 19.923828 28.890625 C 20.065759 29.019571 20.20937 29.143542 20.357422 29.265625 C 20.505473 29.387708 20.656622 29.508075 20.810547 29.623047 C 20.964472 29.738019 21.121699 29.847465 21.28125 29.955078 C 21.440801 30.062691 21.602649 30.167571 21.767578 30.267578 C 21.932507 30.367585 22.101425 30.464487 22.271484 30.556641 C 22.441544 30.648794 22.61412 30.736261 22.789062 30.820312 C 22.964005 30.904364 23.140735 30.984844 23.320312 31.060547 C 23.49989 31.13625 23.681268 31.206331 23.865234 31.273438 C 24.0492 31.340544 24.235722 31.404628 24.423828 31.462891 C 24.611934 31.521153 24.802142 31.573876 24.994141 31.623047 C 25.18614 31.672218 25.380528 31.717981 25.576172 31.757812 C 25.771816 31.797644 25.968927 31.831083 26.167969 31.861328 C 26.367011 31.891573 26.567339 31.917089 26.769531 31.9375 C 26.971723 31.957911 27.175765 31.974046 27.380859 31.984375 C 27.585954 31.994704 27.79225 32 28 32 L 32 32 L 32 0 L 28 0 z" />

</svg>
