<!-- Created by QNetITQ for the WaveFox project -->

<svg xmlns="http://www.w3.org/2000/svg" width="32" height="32" viewBox="0 0 32 32" preserveAspectRatio="none">

    <path fill="context-fill" d="M 28 0 A 12 12 0 0 0 26.292969 0.12304688 A 12 12 0 0 0 24.619141 0.48632812 A 12 12 0 0 0 23.015625 1.0839844 A 12 12 0 0 0 21.511719 1.9042969 A 12 12 0 0 0 20.142578 2.9316406 A 12 12 0 0 0 18.931641 4.1425781 A 12 12 0 0 0 17.904297 5.5117188 A 12 12 0 0 0 17.083984 7.015625 A 12 12 0 0 0 16.486328 8.6191406 A 12 12 0 0 0 16.123047 10.292969 A 12 12 0 0 0 16 12 L 16 20 A 12 12 0 0 1 15.876953 21.707031 A 12 12 0 0 1 15.513672 23.380859 A 12 12 0 0 1 14.916016 24.984375 A 12 12 0 0 1 14.095703 26.488281 A 12 12 0 0 1 13.068359 27.857422 A 12 12 0 0 1 11.857422 29.068359 A 12 12 0 0 1 10.488281 30.095703 A 12 12 0 0 1 8.984375 30.916016 A 12 12 0 0 1 7.3808594 31.513672 A 12 12 0 0 1 5.7070312 31.876953 A 12 12 0 0 1 4 32 L 16 32 L 32 32 L 32 23.283203 L 32 0.6875 L 32 0 L 28 0 z" />

</svg>
