<!-- Created by QNetITQ for the WaveFox project -->

<svg xmlns="http://www.w3.org/2000/svg" width="32" height="32" viewBox="0 0 32 32" preserveAspectRatio="none">

    <path fill="context-fill" d="M 20 0 C 19.8615 0 19.724639 0.0078769803 19.589844 0.021484375 C 19.455049 0.035091769 19.321836 0.053523491 19.191406 0.080078125 C 19.060977 0.10663276 18.933998 0.14084578 18.808594 0.1796875 C 18.68319 0.21852922 18.559172 0.26203135 18.439453 0.3125 C 18.319734 0.36296865 18.203217 0.41903332 18.089844 0.48046875 C 17.976471 0.54190418 17.866133 0.60989859 17.759766 0.68164062 C 17.653399 0.75338267 17.551826 0.83072086 17.453125 0.91210938 C 17.354424 0.99349788 17.260297 1.0795471 17.169922 1.1699219 C 17.079547 1.2602967 16.993498 1.354424 16.912109 1.453125 C 16.830721 1.551826 16.753383 1.6533986 16.681641 1.7597656 C 16.609899 1.8661326 16.541904 1.9764709 16.480469 2.0898438 C 16.419033 2.2032165 16.362969 2.3197346 16.3125 2.4394531 C 16.262031 2.5591717 16.218528 2.6831897 16.179688 2.8085938 C 16.140846 2.9339977 16.106633 3.0609769 16.080078 3.1914062 C 16.053523 3.3218357 16.035092 3.4550491 16.021484 3.5898438 C 16.007877 3.7246383 16 3.8615002 16 4 L 16 28 C 16 28.1385 16.007877 28.275361 16.021484 28.410156 C 16.035092 28.544951 16.053523 28.678164 16.080078 28.808594 C 16.106633 28.939023 16.140846 29.066002 16.179688 29.191406 C 16.218528 29.31681 16.262031 29.440828 16.3125 29.560547 C 16.362969 29.680266 16.419033 29.796783 16.480469 29.910156 C 16.541904 30.023529 16.609899 30.133867 16.681641 30.240234 C 16.753383 30.346601 16.830721 30.448174 16.912109 30.546875 C 16.993498 30.645576 17.079547 30.739703 17.169922 30.830078 C 17.260297 30.920453 17.354424 31.006502 17.453125 31.087891 C 17.551826 31.169279 17.653399 31.246617 17.759766 31.318359 C 17.866133 31.390101 17.976471 31.458096 18.089844 31.519531 C 18.203217 31.580967 18.319734 31.637031 18.439453 31.6875 C 18.559172 31.737969 18.68319 31.781472 18.808594 31.820312 C 18.933998 31.859154 19.060977 31.893367 19.191406 31.919922 C 19.321836 31.946477 19.455049 31.964908 19.589844 31.978516 C 19.724639 31.992123 19.8615 32 20 32 L 28 32 C 28.1385 32 28.275361 31.992123 28.410156 31.978516 C 28.544951 31.964908 28.678164 31.946477 28.808594 31.919922 C 28.939023 31.893367 29.066002 31.859154 29.191406 31.820312 C 29.31681 31.781472 29.440828 31.737969 29.560547 31.6875 C 29.680266 31.637031 29.796783 31.580967 29.910156 31.519531 C 30.023529 31.458096 30.133867 31.390101 30.240234 31.318359 C 30.346601 31.246617 30.448174 31.169279 30.546875 31.087891 C 30.645576 31.006502 30.739703 30.920453 30.830078 30.830078 C 30.920453 30.739703 31.006502 30.645576 31.087891 30.546875 C 31.169279 30.448174 31.246617 30.346601 31.318359 30.240234 C 31.390101 30.133867 31.458096 30.023529 31.519531 29.910156 C 31.580967 29.796783 31.637031 29.680266 31.6875 29.560547 C 31.737969 29.440828 31.781472 29.31681 31.820312 29.191406 C 31.859154 29.066002 31.893367 28.939023 31.919922 28.808594 C 31.946477 28.678164 31.964908 28.544951 31.978516 28.410156 C 31.992123 28.275361 32 28.1385 32 28 L 32 4 C 32 3.8615002 31.992123 3.7246383 31.978516 3.5898438 C 31.964908 3.4550491 31.946477 3.3218357 31.919922 3.1914062 C 31.893367 3.0609769 31.859154 2.9339977 31.820312 2.8085938 C 31.781472 2.6831897 31.737969 2.5591717 31.6875 2.4394531 C 31.637031 2.3197346 31.580967 2.2032165 31.519531 2.0898438 C 31.458096 1.9764709 31.390101 1.8661326 31.318359 1.7597656 C 31.246617 1.6533986 31.169279 1.551826 31.087891 1.453125 C 31.006502 1.354424 30.920453 1.2602967 30.830078 1.1699219 C 30.739703 1.0795471 30.645576 0.99349788 30.546875 0.91210938 C 30.448174 0.83072086 30.346601 0.75338267 30.240234 0.68164062 C 30.133867 0.60989859 30.023529 0.54190418 29.910156 0.48046875 C 29.796783 0.41903332 29.680266 0.36296865 29.560547 0.3125 C 29.440828 0.26203135 29.31681 0.21852922 29.191406 0.1796875 C 29.066002 0.14084578 28.939023 0.10663276 28.808594 0.080078125 C 28.678164 0.053523491 28.544951 0.035091769 28.410156 0.021484375 C 28.275361 0.0078769803 28.1385 0 28 0 L 20 0 z M 28 0 C 28.1385 0 28.275361 0.0078769803 28.410156 0.021484375 C 28.544951 0.035091769 28.678164 0.053523491 28.808594 0.080078125 C 28.939023 0.10663276 29.066002 0.14084578 29.191406 0.1796875 C 29.31681 0.21852922 29.440828 0.26203135 29.560547 0.3125 C 29.680266 0.36296865 29.796783 0.41903332 29.910156 0.48046875 C 30.023529 0.54190418 30.133867 0.60989859 30.240234 0.68164062 C 30.346601 0.75338267 30.448174 0.83072086 30.546875 0.91210938 C 30.645576 0.99349788 30.739703 1.0795471 30.830078 1.1699219 C 30.920453 1.2602967 31.006502 1.354424 31.087891 1.453125 C 31.169279 1.551826 31.246617 1.6533986 31.318359 1.7597656 C 31.390101 1.8661326 31.458096 1.9764709 31.519531 2.0898438 C 31.580967 2.2032165 31.637031 2.3197346 31.6875 2.4394531 C 31.737969 2.5591717 31.781472 2.6831897 31.820312 2.8085938 C 31.859154 2.9339977 31.893367 3.0609769 31.919922 3.1914062 C 31.946477 3.3218357 31.964908 3.4550491 31.978516 3.5898438 C 31.992123 3.7246383 32 3.8615002 32 4 L 32 0 L 28 0 z M 32 28 C 32 28.1385 31.992123 28.275361 31.978516 28.410156 C 31.964908 28.544951 31.946477 28.678164 31.919922 28.808594 C 31.893367 28.939023 31.859154 29.066002 31.820312 29.191406 C 31.781472 29.31681 31.737969 29.440828 31.6875 29.560547 C 31.637031 29.680266 31.580967 29.796783 31.519531 29.910156 C 31.458096 30.023529 31.390101 30.133867 31.318359 30.240234 C 31.246617 30.346601 31.169279 30.448174 31.087891 30.546875 C 31.006502 30.645576 30.920453 30.739703 30.830078 30.830078 C 30.739703 30.920453 30.645576 31.006502 30.546875 31.087891 C 30.448174 31.169279 30.346601 31.246617 30.240234 31.318359 C 30.133867 31.390101 30.023529 31.458096 29.910156 31.519531 C 29.796783 31.580967 29.680266 31.637031 29.560547 31.6875 C 29.440828 31.737969 29.31681 31.781472 29.191406 31.820312 C 29.066002 31.859154 28.939023 31.893367 28.808594 31.919922 C 28.678164 31.946477 28.544951 31.964908 28.410156 31.978516 C 28.275361 31.992123 28.1385 32 28 32 L 32 32 L 32 28 z" />

</svg>
