<!-- Created by QNetITQ for the WaveFox project -->

<svg xmlns="http://www.w3.org/2000/svg" width="32" height="32" viewBox="0 0 32 32" preserveAspectRatio="none">

    <path fill="context-fill" d="M 0 0 L 0 32 C 0.66666603 32 1.333248 31.999349 2 31.978516 C 2.333376 31.968099 2.6666172 31.953125 3 31.929688 C 3.3333828 31.90625 3.6666201 31.875651 4 31.833984 C 4.3333799 31.792318 4.6666328 31.738932 5 31.673828 C 5.3333672 31.608724 5.6666553 31.53125 6 31.4375 C 6.1666724 31.390625 6.3333351 31.340169 6.5 31.285156 C 6.6666649 31.230143 6.8333437 31.171224 7 31.107422 C 7.1666563 31.04362 7.3333536 30.975586 7.5 30.902344 C 7.6666464 30.829102 7.8333647 30.749349 8 30.666016 C 8.1666353 30.582682 8.3336865 30.49414 8.5 30.400391 C 8.6663135 30.306641 8.8327064 30.207682 8.9980469 30.103516 C 9.1633874 29.99935 9.3284713 29.889973 9.4921875 29.775391 C 9.6559037 29.660808 9.817075 29.541014 9.9785156 29.416016 C 10.139956 29.291018 10.300471 29.160804 10.458984 29.025391 C 10.617498 28.889977 10.774752 28.749344 10.929688 28.603516 C 11.084623 28.457687 11.237966 28.306634 11.388672 28.150391 C 11.539378 27.994147 11.688159 27.832674 11.833984 27.666016 C 11.97981 27.499357 12.123379 27.327464 12.263672 27.150391 C 12.403965 26.973317 12.539718 26.791003 12.673828 26.603516 C 12.807938 26.416028 12.939131 26.223292 13.066406 26.025391 C 13.193682 25.827489 13.31771 25.624331 13.4375 25.416016 C 13.55729 25.2077 13.673504 24.99412 13.785156 24.775391 C 13.896809 24.556661 14.004558 24.334611 14.107422 24.105469 C 14.210286 23.876326 14.308919 23.641899 14.402344 23.402344 C 14.495768 23.162788 14.582682 22.917937 14.666016 22.667969 C 14.749349 22.418 14.828776 22.162082 14.902344 21.902344 C 14.975911 21.642606 15.044271 21.37758 15.109375 21.109375 C 15.174479 20.84117 15.235026 20.570293 15.292969 20.294922 C 15.350911 20.019551 15.406901 19.740218 15.458984 19.458984 C 15.563151 18.896516 15.655599 18.324203 15.744141 17.746094 C 15.832682 17.167985 15.916667 16.583333 16 16 C 15.666667 13.666669 15.332681 11.334232 14.666016 9.3339844 C 13.332683 5.3334884 10.667164 2.6673164 8 1.3339844 C 5.3328359 0.00065230833 2.666664 0 0 0 z" />

</svg>
