<!-- Created by QNetITQ for the WaveFox project -->

<svg xmlns="http://www.w3.org/2000/svg" width="32" height="32" viewBox="0 0 32 32" preserveAspectRatio="none">

    <path fill="context-fill" d="M 16 16.158203 L 16 32 L 32 32 L 32 0 A 16 16 0 0 0 29.722656 0.16210938 A 16 16 0 0 0 27.492188 0.6484375 A 16 16 0 0 0 25.353516 1.4453125 A 16 16 0 0 0 23.349609 2.5390625 A 16 16 0 0 0 21.521484 3.9082031 A 16 16 0 0 0 19.908203 5.5214844 A 16 16 0 0 0 18.539062 7.3496094 A 16 16 0 0 0 17.445312 9.3535156 A 16 16 0 0 0 16.648438 11.492188 A 16 16 0 0 0 16.162109 13.722656 A 16 16 0 0 0 16 16 L 16 16.158203 z" />

</svg>
