<!-- Created by QNetITQ for the WaveFox project -->

<svg xmlns="http://www.w3.org/2000/svg" width="32" height="32" viewBox="0 0 32 32" preserveAspectRatio="none">

    <path fill="context-fill" d="m 0,0 a 16,16 0 0 1 2.277344,0.16210938 16,16 0 0 1 2.230468,0.48632812 16,16 0 0 1 2.138672,0.796875 16,16 0 0 1 2.003907,1.09375 16,16 0 0 1 1.828125,1.3691406 16,16 0 0 1 1.613281,1.6132813 16,16 0 0 1 1.369141,1.828125 16,16 0 0 1 1.09375,2.0039062 16,16 0 0 1 0.796874,2.1386724 16,16 0 0 1 0.486329,2.230468 A 16,16 0 0 1 16,16 v 0.158203 a 16,16 0 0 0 0.162109,2.119141 16,16 0 0 0 0.486329,2.230468 16,16 0 0 0 0.796874,2.138672 16,16 0 0 0 1.09375,2.003907 16,16 0 0 0 1.369141,1.828125 16,16 0 0 0 1.613281,1.613281 16,16 0 0 0 1.828125,1.369141 16,16 0 0 0 2.003907,1.09375 16,16 0 0 0 2.138671,0.796874 16,16 0 0 0 2.230469,0.486329 A 16,16 0 0 0 32,32 H 16 0 Z" />

</svg>
