<!-- Created by QNetITQ for the WaveFox project -->

<svg xmlns="http://www.w3.org/2000/svg" width="32" height="32" viewBox="0 0 32 32" preserveAspectRatio="none">

    <path fill="context-fill" d="m 32,0 v 32 c -0.416666,0 -0.833389,-6.52e-4 -1.248047,-0.0039 -0.414658,-0.0033 -0.827758,-0.0085 -1.236328,-0.02148 -0.40857,-0.01302 -0.812534,-0.03321 -1.210937,-0.0625 -0.398404,-0.02929 -0.791624,-0.06902 -1.175782,-0.121093 -0.192079,-0.02604 -0.380606,-0.05494 -0.568359,-0.08789 -0.187753,-0.03295 -0.373724,-0.06869 -0.556641,-0.109375 -0.182916,-0.0407 -0.363445,-0.08555 -0.541015,-0.134778 -0.177571,-0.04923 -0.351724,-0.103525 -0.523438,-0.162109 -0.171714,-0.05858 -0.340511,-0.122651 -0.505859,-0.191406 -0.165349,-0.06875 -0.327856,-0.142917 -0.486328,-0.222657 -0.158473,-0.07974 -0.313757,-0.164321 -0.464844,-0.255859 -0.151087,-0.09154 -0.298215,-0.188819 -0.441406,-0.292969 C 22.897824,30.229835 22.75839,30.1188 22.623047,30.001953 22.487704,29.885106 22.356579,29.761706 22.228516,29.632812 22.100452,29.503919 21.976822,29.368804 21.855469,29.228516 21.734115,29.088228 21.615213,28.944001 21.5,28.792969 21.384787,28.641937 21.271751,28.485343 21.162109,28.324219 21.052467,28.163094 20.946437,27.996738 20.841797,27.826172 20.737157,27.655606 20.635364,27.480138 20.535156,27.300781 20.434949,27.121425 20.336579,26.937496 20.240234,26.75 20.047545,26.375009 19.862294,25.985672 19.681641,25.582031 19.500987,25.178391 19.323563,24.761065 19.150391,24.333984 18.977218,23.906904 18.806965,23.468749 18.636719,23.023438 18.466473,22.578126 18.296875,22.126302 18.125,21.667969 L 16,16 18.125,10.333984 C 19.499999,6.6673216 20.750702,3.3329546 23.042969,1.6660156 25.335236,-9.2330806e-4 28.66667,0 32,0 Z" />

</svg>
