<!-- Created by QNetITQ for the WaveFox project -->

<svg xmlns="http://www.w3.org/2000/svg" width="32" height="32" viewBox="0 0 32 32" preserveAspectRatio="none">

    <path fill="context-fill" d="M 0 0 L 0 32 C 0.41666625 32 0.83338895 31.999348 1.2480469 31.996094 C 1.6627048 31.992839 2.0758046 31.987628 2.484375 31.974609 C 2.8929454 31.961591 3.2969088 31.941401 3.6953125 31.912109 C 4.0937162 31.882817 4.4869359 31.84309 4.8710938 31.791016 C 5.0631727 31.764978 5.2517005 31.736079 5.4394531 31.703125 C 5.6272058 31.670171 5.8131773 31.634433 5.9960938 31.59375 C 6.1790102 31.553067 6.3595391 31.508211 6.5371094 31.458984 C 6.7146797 31.409757 6.8888326 31.355459 7.0605469 31.296875 C 7.2322612 31.238291 7.4010578 31.174224 7.5664062 31.105469 C 7.7317547 31.036714 7.8942618 30.962552 8.0527344 30.882812 C 8.211207 30.803073 8.3664912 30.718491 8.5175781 30.626953 C 8.6686651 30.535416 8.815793 30.438134 8.9589844 30.333984 C 9.1021757 30.229835 9.2416104 30.1188 9.3769531 30.001953 C 9.5122958 29.885106 9.6434209 29.761706 9.7714844 29.632812 C 9.8995478 29.503919 10.023178 29.368804 10.144531 29.228516 C 10.265885 29.088228 10.384787 28.944001 10.5 28.792969 C 10.615213 28.641937 10.728249 28.485343 10.837891 28.324219 C 10.947533 28.163094 11.053563 27.996738 11.158203 27.826172 C 11.262843 27.655606 11.364636 27.480138 11.464844 27.300781 C 11.565051 27.121425 11.663421 26.937496 11.759766 26.75 C 11.952455 26.375009 12.137706 25.985672 12.318359 25.582031 C 12.499013 25.178391 12.676437 24.761065 12.849609 24.333984 C 13.022782 23.906904 13.193035 23.468749 13.363281 23.023438 C 13.533527 22.578126 13.703125 22.126302 13.875 21.667969 L 16 16 L 13.875 10.333984 C 12.500001 6.6673216 11.249298 3.3329546 8.9570312 1.6660156 C 6.6647641 -0.00092330806 3.33333 0 0 0 z" />

</svg>
