<!-- Created by QNetITQ for the WaveFox project -->

<svg xmlns="http://www.w3.org/2000/svg" width="32" height="32" viewBox="0 0 32 32" preserveAspectRatio="none">

    <path fill="context-fill" d="m 32,0 v 8 24 h -8 a 8,8 0 0 1 -1.138672,-0.08203 8,8 0 0 1 -1.115234,-0.242188 8,8 0 0 1 -1.070313,-0.398437 8,8 0 0 1 -1,-0.546875 8,8 0 0 1 -0.914062,-0.683594 8,8 0 0 1 -0.808594,-0.808594 8,8 0 0 1 -0.683594,-0.914062 8,8 0 0 1 -0.546875,-1 A 8,8 0 0 1 16.324219,26.253906 8,8 0 0 1 16.082031,25.138672 8,8 0 0 1 16,24 V 8 a 8,8 0 0 1 0.08203,-1.1386719 8,8 0 0 1 0.242188,-1.1152343 8,8 0 0 1 0.398437,-1.0703126 8,8 0 0 1 0.546875,-1 8,8 0 0 1 0.683594,-0.9140624 8,8 0 0 1 0.808594,-0.8085938 8,8 0 0 1 0.914062,-0.6835938 8,8 0 0 1 1,-0.54687495 8,8 0 0 1 1.070313,-0.3984375 8,8 0 0 1 1.115234,-0.2421875 A 8,8 0 0 1 24,0 Z" />

</svg>
