<!-- Created by QNetITQ for the WaveFox project -->

<svg xmlns="http://www.w3.org/2000/svg" width="32" height="32" viewBox="0 0 32 32" preserveAspectRatio="none">

    <path fill="context-fill" d="M 24 0 A 8 8 0 0 0 22.861328 0.08203125 A 8 8 0 0 0 21.746094 0.32421875 A 8 8 0 0 0 20.675781 0.72265625 A 8 8 0 0 0 19.675781 1.2695312 A 8 8 0 0 0 18.761719 1.953125 A 8 8 0 0 0 17.953125 2.7617188 A 8 8 0 0 0 17.269531 3.6757812 A 8 8 0 0 0 16.722656 4.6757812 A 8 8 0 0 0 16.324219 5.7460938 A 8 8 0 0 0 16.082031 6.8613281 A 8 8 0 0 0 16 8 L 16 24 A 8 8 0 0 1 15.917969 25.138672 A 8 8 0 0 1 15.675781 26.253906 A 8 8 0 0 1 15.277344 27.324219 A 8 8 0 0 1 14.730469 28.324219 A 8 8 0 0 1 14.046875 29.238281 A 8 8 0 0 1 13.238281 30.046875 A 8 8 0 0 1 12.324219 30.730469 A 8 8 0 0 1 11.324219 31.277344 A 8 8 0 0 1 10.253906 31.675781 A 8 8 0 0 1 9.1386719 31.917969 A 8 8 0 0 1 8 32 L 16 32 L 32 32 L 32 8 L 32 0 L 24 0 z" />

</svg>
