<svg width="18" height="36" viewBox="0 0 18 36" xmlns="http://www.w3.org/2000/svg"><path fill="context-fill" d="M 3.4620099e-4,0 A -9,9 0 0 1 1.2815962,0.09179687 -9,9 0 0 1 2.5355022,0.36523438 -9,9 0 0 1 3.7386272,0.8125 a -9,9 0 0 1 1.126953,0.6171875 -9,9 0 0 1 1.029297,0.7695313 -9,9 0 0 1 0.90625,0.90625 -9,9 0 0 1 0.769531,1.0292968 -9,9 0 0 1 0.617188,1.1269532 -9,9 0 0 1 0.4472656,1.203125 A -9,9 0 0 1 8.9085493,7.71875 -9,9 0 0 1 9.0003462,9 v 18 a -9,9 0 0 0 0.091797,1.28125 -9,9 0 0 0 0.2734375,1.253906 -9,9 0 0 0 0.4472656,1.203125 -9,9 0 0 0 0.6171878,1.126953 -9,9 0 0 0 0.769531,1.029297 -9,9 0 0 0 0.90625,0.90625 -9,9 0 0 0 1.029297,0.769531 -9,9 0 0 0 1.126953,0.617188 -9,9 0 0 0 1.203125,0.447266 -9,9 0 0 0 1.253906,0.273437 A -9,9 0 0 0 18.000346,36 H 9.0003462 3.4620099e-4 V 9 Z"/><path fill="none" stroke="context-stroke" stroke-width="2" d="M 9.4465929e-5,1 C 0.42882047,1.0000405 0.85699247,1.029013 1.2813465,1.086696 c 0.423943,0.057792 0.842978,0.1440931 1.253907,0.2582462 0.411177,0.1135828 0.81324,0.2547473 1.203126,0.4224172 0.389877,0.1686937 0.766486,0.3634896 1.126954,0.5828984 0.360998,0.218785 0.704975,0.4616637 1.029298,0.7267786 0.323236,0.2645981 0.626088,0.5506236 0.906251,0.8559014 0.28071,0.3063046 0.537877,0.6311697 0.769532,0.9721119 0.232316,0.3404405 0.4385708,0.6961277 0.6171888,1.0643429 0.177533,0.3682247 0.3270009,0.7479511 0.4472649,1.1362829 0.120868,0.3880992 0.2122469,0.7838526 0.2734389,1.184243 0.06108,0.4007759 0.09176,0.8051614 0.0918,1.2100673 V 26.499958 c 4.4e-5,0.404905 0.03072,0.809291 0.0918,1.210066 0.06119,0.400392 0.1525689,0.796144 0.2734369,1.184245 0.120264,0.388332 0.2697329,0.768056 0.4472669,1.136282 0.1786169,0.368215 0.3848711,0.723901 0.6171871,1.064343 0.231656,0.340942 0.488822,0.665807 0.769532,0.972112 0.280163,0.305278 0.583015,0.591305 0.906251,0.855901 0.324324,0.265116 0.668299,0.507993 1.029297,0.726779 0.360468,0.219409 0.737079,0.414206 1.126956,0.582897 0.389886,0.167671 0.791949,0.308836 1.203125,0.422418 0.41093,0.114152 0.829964,0.200455 1.253908,0.258245 0.424352,0.05769 0.852526,0.08667 1.28125,0.08671"/></svg>
