<!-- Created by QNetITQ for the WaveFox project -->

<svg xmlns="http://www.w3.org/2000/svg" width="16" height="16" viewBox="0 0 16 16">

    <path fill="context-fill" d="M 8 0 L 0 0 L 0 16 L 16 16 L 16 8 A 8 8 0 0 1 14.861328 7.9179688 A 8 8 0 0 1 13.746094 7.6757812 A 8 8 0 0 1 12.675781 7.2773438 A 8 8 0 0 1 11.675781 6.7304688 A 8 8 0 0 1 10.761719 6.046875 A 8 8 0 0 1 9.953125 5.2382812 A 8 8 0 0 1 9.2695312 4.3242188 A 8 8 0 0 1 8.7226562 3.3242188 A 8 8 0 0 1 8.3242188 2.2539062 A 8 8 0 0 1 8.0820312 1.1386719 A 8 8 0 0 1 8 0 z" />

</svg>