<!-- Created by QNetITQ for the WaveFox project -->

<svg xmlns="http://www.w3.org/2000/svg" width="32" height="32" viewBox="0 0 32 32" preserveAspectRatio="none">

    <path fill="context-fill" d="M 32 0 C 31.723 0 31.447288 0.0077119278 31.173828 0.021484375 C 30.900368 0.035256822 30.628965 0.054816433 30.359375 0.08203125 C 30.089785 0.10924607 29.82203 0.14326664 29.556641 0.18359375 C 29.291251 0.22392086 29.028437 0.27110943 28.767578 0.32421875 C 28.506719 0.37732807 28.248186 0.43639167 27.992188 0.50195312 C 27.736189 0.56751458 27.48323 0.63911336 27.232422 0.71679688 C 26.981614 0.79448039 26.733569 0.8792745 26.488281 0.96875 C 26.242993 1.0582255 25.999203 1.1529689 25.759766 1.2539062 C 25.520328 1.3548436 25.284038 1.4601964 25.050781 1.5722656 C 24.817525 1.6843348 24.588074 1.8029103 24.361328 1.9257812 C 24.134582 2.0486522 23.911311 2.1772042 23.691406 2.3105469 C 23.471501 2.4438895 23.255703 2.5811251 23.042969 2.7246094 C 22.830235 2.8680936 22.621249 3.0166261 22.416016 3.1699219 C 22.210782 3.3232176 22.007949 3.4817541 21.810547 3.6445312 C 21.613145 3.8073084 21.41971 3.9745558 21.230469 4.1464844 C 21.041228 4.3184129 20.856531 4.4950314 20.675781 4.6757812 C 20.495031 4.8565311 20.318413 5.0412277 20.146484 5.2304688 C 19.974556 5.4197098 19.807308 5.6131447 19.644531 5.8105469 C 19.481754 6.007949 19.323218 6.2107824 19.169922 6.4160156 C 19.016626 6.6212488 18.868094 6.8302346 18.724609 7.0429688 C 18.581125 7.2557029 18.44389 7.4715012 18.310547 7.6914062 C 18.177204 7.9113113 18.048652 8.1345823 17.925781 8.3613281 C 17.80291 8.588074 17.684335 8.8175246 17.572266 9.0507812 C 17.460196 9.2840379 17.354844 9.5203284 17.253906 9.7597656 C 17.152969 9.9992029 17.058225 10.242993 16.96875 10.488281 C 16.879275 10.733569 16.79448 10.981614 16.716797 11.232422 C 16.639113 11.48323 16.567515 11.736189 16.501953 11.992188 C 16.436392 12.248186 16.377328 12.506719 16.324219 12.767578 C 16.271109 13.028437 16.223921 13.291251 16.183594 13.556641 C 16.143267 13.82203 16.109246 14.089785 16.082031 14.359375 C 16.054816 14.628965 16.035257 14.900368 16.021484 15.173828 C 16.007712 15.447288 16 15.723 16 16 C 16 16.277 16.007712 16.552712 16.021484 16.826172 C 16.035257 17.099632 16.054816 17.371035 16.082031 17.640625 C 16.109246 17.910215 16.143267 18.17797 16.183594 18.443359 C 16.223921 18.708749 16.271109 18.971563 16.324219 19.232422 C 16.377328 19.493281 16.436392 19.751814 16.501953 20.007812 C 16.567515 20.263811 16.639113 20.51677 16.716797 20.767578 C 16.79448 21.018386 16.879275 21.266431 16.96875 21.511719 C 17.058225 21.757007 17.152969 22.000797 17.253906 22.240234 C 17.354844 22.479672 17.460196 22.715962 17.572266 22.949219 C 17.684335 23.182475 17.80291 23.411926 17.925781 23.638672 C 18.048652 23.865418 18.177204 24.088689 18.310547 24.308594 C 18.44389 24.528499 18.581125 24.744297 18.724609 24.957031 C 18.868094 25.169765 19.016626 25.378751 19.169922 25.583984 C 19.323218 25.789218 19.481754 25.992051 19.644531 26.189453 C 19.807308 26.386855 19.974556 26.58029 20.146484 26.769531 C 20.318413 26.958772 20.495031 27.143469 20.675781 27.324219 C 20.856531 27.504969 21.041228 27.681587 21.230469 27.853516 C 21.41971 28.025444 21.613145 28.192692 21.810547 28.355469 C 22.007949 28.518246 22.210782 28.676782 22.416016 28.830078 C 22.621249 28.983374 22.830235 29.131906 23.042969 29.275391 C 23.255703 29.418875 23.471501 29.55611 23.691406 29.689453 C 23.911311 29.822796 24.134582 29.951348 24.361328 30.074219 C 24.588074 30.19709 24.817525 30.315665 25.050781 30.427734 C 25.284038 30.539804 25.520328 30.645156 25.759766 30.746094 C 25.999203 30.847031 26.242993 30.941775 26.488281 31.03125 C 26.733569 31.120725 26.981614 31.20552 27.232422 31.283203 C 27.48323 31.360887 27.736189 31.432485 27.992188 31.498047 C 28.248186 31.563608 28.506719 31.622672 28.767578 31.675781 C 29.028437 31.728891 29.291251 31.776079 29.556641 31.816406 C 29.82203 31.856733 30.089785 31.890754 30.359375 31.917969 C 30.628965 31.945184 30.900368 31.964743 31.173828 31.978516 C 31.447288 31.992288 31.723 32 32 32 L 32 0 z" />

</svg>
