<!-- Created by QNetITQ for the WaveFox project -->

<svg xmlns="http://www.w3.org/2000/svg" width="32" height="32" viewBox="0 0 32 32" preserveAspectRatio="none">

    <path fill="context-fill" d="m 0,0 c 0.277,0 0.552712,0.00771193 0.826172,0.02148438 0.27346,0.01377244 0.544863,0.03333205 0.814453,0.06054687 0.26959,0.02721482 0.537345,0.06123539 0.802734,0.1015625 0.26539,0.0403271 0.528204,0.0875157 0.789063,0.140625 0.260859,0.0531093 0.519392,0.11217292 0.77539,0.17773437 0.255999,0.0655615 0.508958,0.13716024 0.759766,0.21484376 0.250808,0.0776835 0.498853,0.16247762 0.744141,0.25195312 0.245288,0.0894755 0.489078,0.1842189 0.728515,0.2851562 0.239438,0.1009374 0.475728,0.2062902 0.708985,0.3183594 0.233256,0.1120692 0.462707,0.2306447 0.689453,0.3535156 0.226746,0.122871 0.450017,0.251423 0.669922,0.3847657 0.219905,0.1333426 0.435703,0.2705782 0.648437,0.4140625 0.212734,0.1434842 0.42172,0.2920167 0.626953,0.4453125 0.205234,0.1532957 0.408067,0.3118322 0.605469,0.4746093 0.197402,0.1627772 0.390837,0.3300246 0.580078,0.5019532 0.189241,0.1719285 0.373938,0.348547 0.554688,0.5292968 0.18075,0.1807499 0.357368,0.3654465 0.529297,0.5546876 0.171928,0.189241 0.339176,0.3826759 0.501953,0.5800781 0.162777,0.1974021 0.321313,0.4002355 0.474609,0.6054687 0.153296,0.2052332 0.301828,0.414219 0.445313,0.6269532 0.143484,0.2127341 0.280719,0.4285324 0.414062,0.6484374 0.133343,0.2199051 0.261895,0.4431761 0.384766,0.6699219 0.122871,0.2267459 0.241446,0.4561965 0.353515,0.6894531 0.11207,0.2332567 0.217422,0.4695472 0.31836,0.7089844 0.100937,0.2394373 0.195681,0.4832274 0.285156,0.7285154 0.08948,0.245288 0.17427,0.493333 0.251953,0.744141 0.07768,0.250808 0.149282,0.503767 0.214844,0.759766 0.06556,0.255998 0.124625,0.514531 0.177734,0.77539 0.05311,0.260859 0.100298,0.523673 0.140625,0.789063 0.04033,0.265389 0.07435,0.533144 0.101563,0.802734 0.02722,0.26959 0.04677,0.540993 0.06055,0.814453 C 15.992288,15.447288 16,15.723 16,16 c 0,0.277 -0.0077,0.552712 -0.02148,0.826172 -0.01377,0.27346 -0.03333,0.544863 -0.06055,0.814453 -0.02721,0.26959 -0.06124,0.537345 -0.101563,0.802734 -0.04033,0.26539 -0.08751,0.528204 -0.140625,0.789063 -0.05311,0.260859 -0.112173,0.519392 -0.177734,0.77539 -0.06556,0.255999 -0.13716,0.508958 -0.214844,0.759766 -0.07768,0.250808 -0.162478,0.498853 -0.251953,0.744141 -0.08948,0.245288 -0.184219,0.489078 -0.285156,0.728515 -0.100938,0.239438 -0.20629,0.475728 -0.31836,0.708985 -0.112069,0.233256 -0.230644,0.462707 -0.353515,0.689453 -0.122871,0.226746 -0.251423,0.450017 -0.384766,0.669922 -0.133343,0.219905 -0.270578,0.435703 -0.414062,0.648437 -0.143485,0.212734 -0.292017,0.42172 -0.445313,0.626953 -0.153296,0.205234 -0.311832,0.408067 -0.474609,0.605469 -0.162777,0.197402 -0.330025,0.390837 -0.501953,0.580078 -0.171929,0.189241 -0.348547,0.373938 -0.529297,0.554688 -0.18075,0.18075 -0.365447,0.357368 -0.554688,0.529297 -0.189241,0.171928 -0.382676,0.339176 -0.580078,0.501953 C 9.992052,28.518246 9.789219,28.676782 9.583985,28.830078 9.378752,28.983374 9.169766,29.131906 8.957032,29.275391 8.744298,29.418875 8.5285,29.55611 8.308595,29.689453 8.08869,29.822796 7.865419,29.951348 7.638673,30.074219 7.411927,30.19709 7.182476,30.315665 6.94922,30.427734 c -0.233257,0.11207 -0.469547,0.217422 -0.708985,0.31836 -0.239437,0.100937 -0.483227,0.195681 -0.728515,0.285156 -0.245288,0.08948 -0.493333,0.17427 -0.744141,0.251953 -0.250808,0.07768 -0.503767,0.149282 -0.759766,0.214844 -0.255998,0.06556 -0.514531,0.124625 -0.77539,0.177734 -0.260859,0.05311 -0.523673,0.100298 -0.789063,0.140625 -0.265389,0.04033 -0.533144,0.07435 -0.802734,0.101563 -0.26959,0.02722 -0.540993,0.04677 -0.814453,0.06055 C 0.552712,31.992288 0.277,32 0,32 Z" />

</svg>
