<!-- Created by QNetITQ for the WaveFox project -->

<svg xmlns="http://www.w3.org/2000/svg" width="32" height="32" viewBox="0 0 32 32" preserveAspectRatio="none">

    <path fill="context-fill" d="M 4,0 C 4.20775,0 4.414046,0.00529566 4.619141,0.015625 4.824235,0.02595434 5.028277,0.04208889 5.230469,0.0625 5.432661,0.08291111 5.632989,0.10842654 5.832031,0.13867188 6.031073,0.16891718 6.228184,0.20235548 6.423828,0.2421875 6.619472,0.2820195 6.81386,0.327782 7.005859,0.37695312 7.197858,0.42612422 7.388066,0.47884674 7.576172,0.53710938 7.764278,0.59537198 7.9508,0.65945588 8.134766,0.7265625 8.318732,0.7936691 8.50011,0.86375008 8.679688,0.93945312 8.859265,1.0151562 9.035995,1.0956356 9.210938,1.1796875 c 0.174942,0.084052 0.347518,0.1715186 0.517578,0.2636719 0.170059,0.092153 0.338977,0.1890555 0.503906,0.2890625 0.164929,0.100007 0.326777,0.2048868 0.486328,0.3125 0.159551,0.1076131 0.316778,0.2170594 0.470703,0.3320312 0.153925,0.1149718 0.305074,0.235339 0.453125,0.3574219 0.148052,0.1220829 0.291663,0.2460536 0.433594,0.375 0.141931,0.1289464 0.280453,0.2628751 0.416016,0.3984375 0.135562,0.1355624 0.269491,0.2740849 0.398437,0.4160156 0.128946,0.1419308 0.252917,0.2855422 0.375,0.4335938 0.122083,0.1480516 0.24245,0.2992001 0.357422,0.453125 0.114972,0.1539249 0.224418,0.3111525 0.332031,0.4707031 0.107613,0.1595506 0.212493,0.3213993 0.3125,0.4863281 0.100007,0.1649288 0.196909,0.3338469 0.289063,0.5039063 0.09215,0.1700594 0.17962,0.3426356 0.263671,0.5175781 0.08405,0.1749425 0.164532,0.3516721 0.240235,0.53125 0.0757,0.1795779 0.145784,0.360956 0.212891,0.5449219 0.06711,0.1839659 0.13119,0.3704875 0.189453,0.5585937 0.05826,0.1881063 0.110985,0.3783134 0.160156,0.5703125 0.04917,0.1919991 0.09493,0.3863869 0.134765,0.5820313 0.03983,0.1956443 0.07327,0.3927548 0.103516,0.5917971 0.03025,0.199042 0.05576,0.39937 0.07617,0.601562 0.02041,0.202192 0.03655,0.406234 0.04687,0.611328 C 15.994704,11.585954 16,11.79225 16,12 v 8 c 0,0.20775 -0.0053,0.414046 -0.01563,0.619141 -0.01033,0.205094 -0.02646,0.409136 -0.04687,0.611328 -0.02041,0.202192 -0.04593,0.40252 -0.07617,0.601562 -0.03025,0.199042 -0.06368,0.396153 -0.103516,0.591797 -0.03983,0.195644 -0.08559,0.390032 -0.134765,0.582031 -0.04917,0.191999 -0.101894,0.382207 -0.160156,0.570313 -0.05826,0.188106 -0.122347,0.374628 -0.189453,0.558594 -0.06711,0.183966 -0.137188,0.365344 -0.212891,0.544922 -0.0757,0.179577 -0.156183,0.356307 -0.240235,0.53125 -0.08405,0.174942 -0.171518,0.347518 -0.263671,0.517578 -0.09215,0.170059 -0.189056,0.338977 -0.289063,0.503906 -0.100007,0.164929 -0.204887,0.326777 -0.3125,0.486328 -0.107613,0.159551 -0.217059,0.316778 -0.332031,0.470703 -0.114972,0.153925 -0.235339,0.305074 -0.357422,0.453125 -0.122083,0.148052 -0.246054,0.291663 -0.375,0.433594 -0.128946,0.141931 -0.262875,0.280453 -0.398437,0.416016 -0.135563,0.135562 -0.274085,0.269491 -0.416016,0.398437 -0.141931,0.128946 -0.285542,0.252917 -0.433594,0.375 -0.148051,0.122083 -0.2992,0.24245 -0.453125,0.357422 -0.153925,0.114972 -0.311152,0.224418 -0.470703,0.332031 -0.159551,0.107613 -0.321399,0.212493 -0.486328,0.3125 -0.164929,0.100007 -0.333847,0.196909 -0.503906,0.289063 -0.17006,0.09215 -0.342636,0.17962 -0.517578,0.263671 -0.174943,0.08405 -0.351673,0.164532 -0.53125,0.240235 -0.179578,0.0757 -0.360956,0.145784 -0.544922,0.212891 -0.183966,0.06711 -0.370488,0.13119 -0.558594,0.189453 -0.188106,0.05826 -0.378314,0.110985 -0.570313,0.160156 -0.191999,0.04917 -0.386387,0.09493 -0.582031,0.134765 -0.195644,0.03983 -0.392755,0.07327 -0.591797,0.103516 -0.199042,0.03025 -0.39937,0.05576 -0.601562,0.07617 -0.202192,0.02041 -0.406234,0.03655 -0.611328,0.04687 C 4.414046,31.994704 4.20775,32 4,32 H 0 V 0 Z" />

</svg>
