<!-- Created by QNetITQ for the WaveFox project -->

<svg xmlns="http://www.w3.org/2000/svg" width="32" height="32" viewBox="0 0 32 32" preserveAspectRatio="none">

    <path fill="context-fill" d="m 12,0 c 0.1385,0 0.275361,0.00787698 0.410156,0.02148438 0.134795,0.01360739 0.268008,0.03203911 0.398438,0.05859374 0.130429,0.02655464 0.257408,0.06076766 0.382812,0.09960938 0.125404,0.0388417 0.249422,0.0823439 0.369141,0.1328125 0.119719,0.0504687 0.236236,0.10653332 0.349609,0.16796875 0.113373,0.0614354 0.223711,0.12942984 0.330078,0.20117187 0.106367,0.0717421 0.20794,0.14908024 0.306641,0.23046876 0.0987,0.0813885 0.192828,0.16743772 0.283203,0.25781252 0.09037,0.090375 0.176424,0.1845021 0.257813,0.2832031 0.08139,0.098701 0.158726,0.2002736 0.230468,0.3066406 0.07174,0.106367 0.139737,0.2167053 0.201172,0.3300782 0.06144,0.1133727 0.1175,0.2298908 0.167969,0.3496093 0.05047,0.1197186 0.09397,0.2437366 0.132812,0.3691407 0.03884,0.1254039 0.07306,0.2523831 0.09961,0.3828124 0.02656,0.1304295 0.04499,0.2636429 0.05859,0.3984376 C 15.992123,3.7246383 16,3.8615002 16,4 v 24 c 0,0.1385 -0.0079,0.275361 -0.02148,0.410156 -0.01361,0.134795 -0.03204,0.268008 -0.05859,0.398438 -0.02655,0.130429 -0.06077,0.257408 -0.09961,0.382812 -0.03884,0.125404 -0.08234,0.249422 -0.132812,0.369141 -0.05047,0.119719 -0.106533,0.236236 -0.167969,0.349609 -0.06143,0.113373 -0.12943,0.223711 -0.201172,0.330078 -0.07174,0.106367 -0.14908,0.20794 -0.230468,0.306641 -0.08139,0.0987 -0.167438,0.192828 -0.257813,0.283203 -0.09038,0.09037 -0.184502,0.176424 -0.283203,0.257813 -0.0987,0.08139 -0.200274,0.158726 -0.306641,0.230468 -0.106367,0.07174 -0.216705,0.139737 -0.330078,0.201172 -0.113373,0.06144 -0.22989,0.1175 -0.349609,0.167969 -0.119719,0.05047 -0.243737,0.09397 -0.369141,0.132812 -0.125404,0.03884 -0.252383,0.07306 -0.382812,0.09961 -0.13043,0.02656 -0.263643,0.04499 -0.398438,0.05859 C 12.275361,31.992123 12.1385,32 12,32 H 4 C 3.8615,32 3.724639,31.9921 3.589844,31.97852 3.455049,31.96491 3.321836,31.94648 3.191406,31.91993 3.060977,31.89338 2.933998,31.85916 2.808594,31.82032 2.68319,31.78148 2.559172,31.73798 2.439453,31.687508 2.319734,31.637038 2.203217,31.580975 2.089844,31.519539 1.976471,31.458109 1.866133,31.390109 1.759766,31.318367 1.653399,31.246627 1.551826,31.169287 1.453125,31.087899 1.354425,31.006509 1.260297,30.920461 1.169922,30.830086 1.079552,30.739706 0.993498,30.645584 0.912109,30.546883 0.830719,30.448183 0.753383,30.346609 0.681641,30.240242 0.609901,30.133875 0.541904,30.023537 0.480469,29.910164 0.419029,29.796791 0.362969,29.680274 0.3125,29.560555 0.26203,29.440836 0.21853,29.316818 0.179688,29.191414 0.140848,29.06601 0.106628,28.939031 0.080078,28.808602 0.053518,28.678172 0.035088,28.544959 0.021488,28.410164 0.007877,28.275361 0,28.1385 0,28 V 4 C 0,3.8615002 0.0079,3.7246383 0.02148,3.5898438 0.03509,3.4550491 0.05352,3.3218357 0.08007,3.1914062 0.10662,3.0609769 0.14084,2.9339977 0.17968,2.8085938 0.21852,2.6831897 0.26202,2.5591717 0.312492,2.4394531 0.362962,2.3197346 0.419025,2.2032165 0.480461,2.0898438 0.541891,1.9764709 0.609891,1.8661326 0.681633,1.7597656 0.753373,1.6533986 0.830713,1.551826 0.912101,1.453125 0.993491,1.354424 1.079539,1.2602967 1.169914,1.1699219 1.260294,1.0795469 1.354416,0.99349788 1.453117,0.91210938 1.551817,0.83072088 1.653391,0.75338267 1.759758,0.68164062 1.866125,0.60989862 1.976463,0.54190418 2.089836,0.48046875 2.203209,0.41903335 2.319726,0.36296865 2.439445,0.3125 2.559164,0.2620313 2.683182,0.2185292 2.808586,0.1796875 2.93399,0.1408458 3.060969,0.1066328 3.191398,0.08007812 3.321828,0.05352349 3.455041,0.03509177 3.589836,0.02148438 3.724639,0.00787698 3.8615,0 4,0 Z M 4,0 C 3.8615,0 3.724639,0.00787698 3.589844,0.02148438 3.455049,0.03509177 3.321836,0.05352349 3.191406,0.08007812 3.060977,0.10663276 2.933998,0.14084578 2.808594,0.1796875 2.68319,0.21852922 2.559172,0.26203135 2.439453,0.3125 2.319734,0.3629687 2.203217,0.41903332 2.089844,0.48046875 1.976471,0.54190415 1.866133,0.60989859 1.759766,0.68164062 1.653399,0.75338272 1.551826,0.83072086 1.453125,0.91210938 1.354425,0.99349788 1.260297,1.0795471 1.169922,1.1699219 1.079552,1.2602969 0.993498,1.354424 0.912109,1.453125 0.830719,1.551826 0.753383,1.6533986 0.681641,1.7597656 0.609901,1.8661326 0.541904,1.9764709 0.480469,2.0898438 0.419029,2.2032165 0.362969,2.3197346 0.3125,2.4394531 0.26203,2.5591717 0.21853,2.6831897 0.179688,2.8085938 0.140848,2.9339977 0.106628,3.0609769 0.080078,3.1914062 0.053518,3.3218357 0.035088,3.4550491 0.021488,3.5898438 0.007877,3.7246383 0,3.8615002 0,4 V 0 Z M 0,28 c 0,0.1385 0.0079,0.275361 0.02148,0.410156 0.01361,0.134795 0.03204,0.268008 0.05859,0.398438 0.02655,0.130429 0.06077,0.257408 0.09961,0.382812 0.03884,0.125404 0.08234,0.249422 0.132812,0.369141 0.05047,0.119719 0.106533,0.236236 0.167969,0.349609 0.06143,0.113373 0.12943,0.223711 0.201172,0.330078 0.07174,0.106367 0.14908,0.20794 0.230468,0.306641 0.08139,0.0987 0.167438,0.192828 0.257813,0.283203 0.09038,0.09037 0.184502,0.176424 0.283203,0.257813 0.0987,0.08139 0.200274,0.158726 0.306641,0.230468 0.106367,0.07174 0.216705,0.139737 0.330078,0.201172 0.113373,0.06144 0.22989,0.1175 0.349609,0.167969 0.119719,0.05047 0.243737,0.09397 0.369141,0.132812 0.125404,0.03884 0.252383,0.07306 0.382812,0.09961 0.13043,0.02656 0.263643,0.04499 0.398438,0.05859 C 3.724639,31.992123 3.8615,32 4,32 H 0 Z" />

</svg>
