<!-- Created by QNetITQ for the WaveFox project -->

<svg xmlns="http://www.w3.org/2000/svg" width="36" height="36" viewBox="0 0 1 1" preserveAspectRatio="none">

    <defs>
        <path id="Path" d="m 0.5,0.26555475 c 4.83e-4,0.001175 0.001,0.002339 0.0015,0.003516 0.003,0.007484 0.0059,0.0150356 0.0086,0.0225912 0.0027,0.007555 0.0052,0.0151259 0.0076,0.0227213 0.0024,0.007595 0.0046,0.0151831 0.0068,0.0227865 0.0043,0.0152068 0.0081,0.0303964 0.01146,0.0454427 0.0034,0.0150463 0.0063,0.0299666 0.0091,0.0445963 0.0027,0.0146297 0.0051,0.0290119 0.0074,0.0429688 0.0045,0.0279137 0.0084,0.0541794 0.01256,0.0778646 0.0031,0.0177094 0.0065,0.0348922 0.01016,0.0515625 0.0036,0.0166703 0.0075,0.032871 0.01172,0.0485026 0.0042,0.0156316 0.0087,0.0307191 0.01354,0.0453125 0.0024,0.007297 0.0049,0.0144471 0.0075,0.0214844 0.0026,0.007037 0.0052,0.0139903 0.0079,0.0207682 0.0027,0.006778 0.0056,0.0134033 0.0085,0.0199219 0.0029,0.006519 0.0059,0.0128813 0.009,0.0191406 0.0031,0.006259 0.0063,0.0124244 0.0096,0.0184245 0.0033,0.006 0.0067,0.0118372 0.01016,0.0175781 0.0035,0.005741 0.0071,0.0113801 0.01074,0.016862 0.0037,0.005482 0.0074,0.0107928 0.01126,0.0160156 0.0039,0.005223 0.0079,0.0103356 0.01198,0.0152995 0.0041,0.004964 0.0082,0.009813 0.0125,0.0145182 0.0043,0.004705 0.0087,0.009291 0.01322,0.013737 0.0045,0.004446 0.0091,0.008768 0.01387,0.0129557 0.0047,0.004187 0.0096,0.008246 0.01458,0.0121745 0.005,0.003929 0.01003,0.007723 0.01523,0.0113932 0.0052,0.00367 0.01051,0.0072 0.01595,0.010612 0.0054,0.00341 0.01104,0.00668 0.01673,0.00983 0.0057,0.00315 0.01151,0.00622 0.01745,0.00911 0.0059,0.00289 0.01196,0.00563 0.01816,0.00827 0.0062,0.00264 0.01255,0.00511 0.01901,0.00749 0.0065,0.00238 0.01306,0.00465 0.01979,0.00677 0.0067,0.00212 0.01363,0.00413 0.02064,0.00599 0.007,0.00186 0.01413,0.0036 0.02142,0.00521 0.0073,0.0016 0.01469,0.00308 0.02227,0.00443 0.0076,0.00135 0.01531,0.00256 0.02318,0.00365 0.0079,0.00109 0.01586,0.00204 0.02402,0.00287 0.0081,8.275e-4 0.01644,0.00151 0.0249,0.00208 V -5.15e-6 H 0.95 C 0.676192,5.7866e-4 0.557857,0.12481312 0.5,0.26555475 Z"/>
    </defs>

    <use href="#Path" fill="context-fill"/>

    <clipPath id="ClipPath" clipPathUnits="objectBoundingBox">
        <use href="#Path"/>
    </clipPath>

    <mask id="Mask" maskContentUnits="objectBoundingBox">
        <use href="#Path" fill="#ffffff"/>
    </mask>

</svg>
